<?xml version="1.0" encoding="utf-8"?>
<!-- Generator: Adobe Illustrator 16.0.4, SVG Export Plug-In . SVG Version: 6.00 Build 0)  -->
<!DOCTYPE svg PUBLIC "-//W3C//DTD SVG 1.1//EN" "http://www.w3.org/Graphics/SVG/1.1/DTD/svg11.dtd">
<svg version="1.1" id="Layer_2" xmlns="http://www.w3.org/2000/svg" xmlns:xlink="http://www.w3.org/1999/xlink" x="0px" y="0px"
	 width="252px" height="97.617px" viewBox="0 0 252 97.617" enable-background="new 0 0 252 97.617" xml:space="preserve">
<g>
	<g>
		<g>
			<path fill="#FFFFFF" d="M37.222,62.068c0.582,0.033,1.139,0.057,1.67,0.074c0.533,0.017,1.016,0.024,1.45,0.024
				c0.499,0,1.01-0.008,1.534-0.024c0.524-0.018,1.061-0.041,1.61-0.074v0.859h-0.332c-0.671,0-1.124,0.179-1.357,0.534
				s-0.35,1.302-0.35,2.838V66.9v3.017c0.532,0.017,1.095,0.029,1.688,0.037s1.423,0.012,2.487,0.012
				c1.088,0,2.036-0.004,2.843-0.012c0.806-0.008,1.627-0.021,2.462-0.037v-3.421c0-1.626-0.117-2.628-0.35-3.003
				c-0.234-0.377-0.687-0.565-1.358-0.565H48.89v-0.859c0.548,0.033,1.087,0.057,1.615,0.074c0.528,0.017,1.046,0.024,1.554,0.024
				c0.435,0,0.913-0.008,1.437-0.024c0.524-0.018,1.077-0.041,1.658-0.074v0.859c-0.042,0-0.098-0.004-0.172-0.011
				c-0.074-0.009-0.126-0.013-0.16-0.013c-0.63,0-1.06,0.198-1.289,0.595c-0.229,0.397-0.344,1.246-0.344,2.547
				c0,0.245,0.004,0.712,0.012,1.398c0.008,0.688,0.012,1.253,0.012,1.694v3.264c0,0.441-0.004,1.009-0.012,1.7
				c-0.008,0.691-0.012,1.164-0.012,1.417c0,1.342,0.115,2.218,0.344,2.626c0.229,0.41,0.659,0.615,1.289,0.615
				c0.115,0,0.203-0.003,0.264-0.007c0.062-0.004,0.117-0.007,0.166-0.007v0.848c-0.647-0.031-1.247-0.057-1.799-0.073
				c-0.553-0.017-1.018-0.024-1.394-0.024c-0.442,0-0.939,0.008-1.492,0.024s-1.145,0.042-1.774,0.073v-0.859
				c0.049,0,0.123,0.004,0.221,0.012c0.098,0.009,0.167,0.014,0.208,0.014c0.671,0,1.124-0.185,1.358-0.553
				c0.233-0.37,0.35-1.258,0.35-2.666v-1.485v-2.69h-0.16c-2.104-0.033-3.644-0.049-4.618-0.049c-0.737,0-1.441,0.009-2.112,0.023
				c-0.091,0-0.14,0-0.147,0c-0.353,0-0.733,0.003-1.143,0.007c-0.409,0.005-0.844,0.011-1.302,0.019v2.923v0.983
				c0,1.571,0.118,2.546,0.356,2.923c0.237,0.377,0.696,0.565,1.375,0.565c0.041,0,0.111-0.005,0.209-0.014
				c0.099-0.008,0.172-0.012,0.221-0.012v0.859c-0.631-0.031-1.222-0.057-1.775-0.073s-1.05-0.024-1.492-0.024
				c-0.377,0-0.84,0.008-1.388,0.024c-0.549,0.017-1.15,0.042-1.806,0.073v-0.848c0.049,0,0.104,0.003,0.166,0.007
				c0.061,0.004,0.145,0.007,0.252,0.007c0.638,0,1.072-0.205,1.301-0.615c0.229-0.408,0.344-1.284,0.344-2.626
				c0-0.253-0.004-0.726-0.013-1.417s-0.012-1.259-0.012-1.7v-3.264c0-0.41,0.003-0.932,0.012-1.565s0.013-1.065,0.013-1.294
				c0-1.416-0.117-2.332-0.35-2.749c-0.234-0.418-0.674-0.626-1.321-0.626c-0.025,0-0.074,0.004-0.147,0.013
				c-0.074,0.007-0.131,0.011-0.172,0.011V62.068z"/>
			<path fill="#FFFFFF" d="M56.47,62.068c1.433,0.05,2.715,0.087,3.845,0.111s2.104,0.037,2.923,0.037
				c0.909,0,1.828-0.013,2.757-0.037c0.929-0.024,1.873-0.062,2.831-0.111c0.008,0.614,0.033,1.243,0.074,1.885
				c0.041,0.645,0.09,1.288,0.147,1.935l-0.823,0.074c-0.065-0.982-0.369-1.647-0.909-1.996c-0.541-0.348-1.708-0.521-3.501-0.521
				c-0.458,0-1.298,0.013-2.518,0.036c-0.246,0.009-0.426,0.013-0.54,0.013c-0.017,0.982-0.041,2.187-0.074,3.611
				c-0.033,1.424-0.054,2.351-0.062,2.775h0.381c0.483,0,1.086,0.007,1.812,0.019c0.724,0.012,1.209,0.019,1.455,0.019
				c1.188,0,1.972-0.11,2.352-0.332c0.381-0.221,0.587-0.63,0.62-1.228l0.773,0.073c-0.057,0.508-0.1,0.979-0.128,1.412
				c-0.029,0.435-0.043,0.835-0.043,1.204c0,0.213,0.02,0.672,0.062,1.376c0.017,0.254,0.028,0.445,0.037,0.577l-0.798,0.024v-0.099
				c0-0.695-0.203-1.166-0.608-1.411c-0.406-0.247-1.353-0.369-2.843-0.369h-2.186h-0.885c0,0.4-0.004,0.956-0.012,1.664
				c-0.008,0.707-0.012,1.218-0.012,1.528c0,0.541,0.004,1.104,0.012,1.689s0.025,1.271,0.049,2.057
				c0.41,0.05,0.875,0.087,1.394,0.111c0.52,0.024,1.091,0.036,1.713,0.036c2.055,0,3.408-0.197,4.059-0.595
				s1.169-1.161,1.553-2.292l0.885,0.295c-0.246,0.681-0.463,1.348-0.651,2.002c-0.188,0.655-0.352,1.307-0.491,1.953
				c-1.286-0.049-2.481-0.085-3.586-0.11c-1.106-0.024-2.104-0.037-2.997-0.037c-1.22,0-3.186,0.045-5.896,0.136L56.2,79.595v-0.799
				c0.057,0.01,0.113,0.015,0.166,0.02c0.053,0.004,0.133,0.006,0.24,0.006c1.088,0,1.641-1.531,1.658-4.595
				c0.008-0.769,0.017-1.369,0.024-1.804l0.05-3.354c0.007-0.72,0.014-1.42,0.018-2.1c0.005-0.68,0.006-1.416,0.006-2.211
				c0-0.704-0.13-1.191-0.393-1.461c-0.262-0.272-0.729-0.406-1.4-0.406H56.47V62.068z"/>
			<path fill="#FFFFFF" d="M70.478,62.031c0.876,0.05,1.542,0.085,1.996,0.105c0.454,0.02,0.821,0.03,1.099,0.03
				c0.532,0,1.054-0.011,1.566-0.03c0.512-0.021,1.021-0.052,1.529-0.092v0.859h-0.381c-0.647,0-1.085,0.223-1.314,0.668
				c-0.229,0.447-0.344,1.471-0.344,3.074v2.443l0.037,8.994c0.458,0.025,0.895,0.044,1.308,0.056
				c0.414,0.012,0.804,0.019,1.173,0.019c2.194,0,3.608-0.203,4.243-0.608c0.634-0.405,1.14-1.188,1.517-2.352l0.885,0.271
				c-0.254,0.704-0.479,1.396-0.675,2.075c-0.197,0.681-0.369,1.363-0.516,2.051c-1.359-0.04-2.61-0.071-3.752-0.092
				c-1.143-0.02-2.212-0.031-3.211-0.031c-0.705,0-1.491,0.012-2.359,0.031c-0.868,0.021-1.891,0.052-3.07,0.092v-0.799
				c0.058,0.01,0.112,0.015,0.166,0.02c0.053,0.004,0.134,0.006,0.24,0.006c1.104-0.009,1.661-1.583,1.67-4.725
				c0-0.713,0.004-1.268,0.012-1.669l0.024-3.338c0-0.361,0.004-0.823,0.012-1.387c0.008-0.565,0.013-0.958,0.013-1.179
				c0-1.506-0.121-2.485-0.362-2.939c-0.242-0.453-0.711-0.681-1.406-0.681h-0.099V62.031z"/>
			<path fill="#FFFFFF" d="M84.086,62.031c0.876,0.05,1.541,0.085,1.996,0.105c0.455,0.02,0.821,0.03,1.099,0.03
				c0.532,0,1.054-0.011,1.566-0.03c0.511-0.021,1.021-0.052,1.529-0.092v0.859h-0.38c-0.647,0-1.085,0.223-1.314,0.668
				c-0.23,0.447-0.344,1.471-0.344,3.074v2.443l0.037,8.994c0.458,0.025,0.895,0.044,1.308,0.056
				c0.414,0.012,0.805,0.019,1.173,0.019c2.194,0,3.608-0.203,4.243-0.608c0.634-0.405,1.141-1.188,1.517-2.352l0.884,0.271
				c-0.254,0.704-0.479,1.396-0.675,2.075c-0.197,0.681-0.369,1.363-0.516,2.051c-1.359-0.04-2.609-0.071-3.752-0.092
				c-1.142-0.02-2.213-0.031-3.211-0.031c-0.705,0-1.491,0.012-2.359,0.031c-0.867,0.021-1.891,0.052-3.07,0.092v-0.799
				c0.058,0.01,0.112,0.015,0.166,0.02c0.053,0.004,0.133,0.006,0.239,0.006c1.105-0.009,1.662-1.583,1.67-4.725
				c0-0.713,0.004-1.268,0.012-1.669l0.025-3.338c0-0.361,0.003-0.823,0.012-1.387c0.008-0.565,0.012-0.958,0.012-1.179
				c0-1.506-0.121-2.485-0.362-2.939c-0.242-0.453-0.711-0.681-1.407-0.681h-0.098V62.031z"/>
			<path fill="#FFFFFF" d="M108.616,62.598c0,0.605,0.035,1.203,0.104,1.792c0.069,0.59,0.178,1.172,0.325,1.744l-0.958,0.186
				c-0.139-1.016-0.53-1.77-1.172-2.261s-1.55-0.736-2.721-0.736c-1.081,0-1.959,0.261-2.634,0.785
				c-0.676,0.523-1.013,1.2-1.013,2.026c0,1.359,1.441,2.523,4.323,3.488c0.385,0.123,0.68,0.221,0.885,0.295
				c1.318,0.458,2.288,1.046,2.911,1.763c0.622,0.716,0.933,1.603,0.933,2.658c0,1.631-0.618,2.95-1.854,3.961
				c-1.236,1.012-2.874,1.517-4.913,1.517c-0.778,0-1.537-0.063-2.278-0.189c-0.741-0.126-1.492-0.326-2.254-0.596
				c0.009-0.082,0.015-0.178,0.019-0.289c0.004-0.11,0.006-0.271,0.006-0.484c0-0.582-0.032-1.154-0.098-1.721
				c-0.065-0.564-0.164-1.129-0.294-1.694l1.105-0.258c0.139,1.343,0.56,2.325,1.265,2.947c0.704,0.623,1.749,0.935,3.132,0.935
				c1.212,0,2.199-0.307,2.96-0.916c0.761-0.609,1.142-1.394,1.142-2.352c0-1.359-1.188-2.415-3.562-3.17
				c-0.336-0.105-0.599-0.192-0.786-0.258c-1.646-0.531-2.825-1.183-3.538-1.952c-0.712-0.769-1.068-1.751-1.068-2.947
				c0-1.408,0.557-2.584,1.67-3.525c1.113-0.94,2.509-1.412,4.188-1.412c0.614,0,1.236,0.049,1.867,0.147
				C106.938,62.18,107.707,62.352,108.616,62.598z"/>
			<path fill="#FFFFFF" d="M117.827,78.796c0.057,0.01,0.112,0.015,0.166,0.02c0.053,0.004,0.133,0.006,0.239,0.006
				c1.089,0,1.642-1.531,1.659-4.595c0.008-0.769,0.016-1.369,0.024-1.804l0.049-3.354c0.008-0.72,0.014-1.42,0.018-2.1
				s0.006-1.416,0.006-2.211c0-0.704-0.13-1.191-0.393-1.461c-0.262-0.272-0.729-0.406-1.4-0.406h-0.098v-0.86
				c0.524,0.042,1.038,0.07,1.542,0.087c0.503,0.016,1.013,0.024,1.529,0.024c0.573,0,1.277-0.019,2.112-0.056
				c0.835-0.036,1.379-0.056,1.634-0.056c1.685,0,3.018,0.375,3.998,1.124c0.978,0.749,1.468,1.759,1.468,3.028
				c0,0.892-0.24,1.664-0.719,2.315c-0.479,0.65-1.271,1.278-2.377,1.885c1.441,0.278,2.518,0.77,3.23,1.474
				s1.068,1.633,1.068,2.788c0,1.498-0.594,2.706-1.781,3.624c-1.187,0.916-2.772,1.374-4.753,1.374c-0.36,0-1.036-0.02-2.026-0.061
				c-0.991-0.042-1.81-0.062-2.457-0.062c-0.27,0-0.645,0.009-1.124,0.024c-0.479,0.018-1.018,0.04-1.615,0.074V78.796z
				 M122.175,77.998c0.475,0.14,0.942,0.245,1.4,0.312c0.458,0.071,0.904,0.105,1.339,0.105c1.342,0,2.381-0.327,3.119-0.982
				s1.105-1.568,1.105-2.739c0-1.244-0.413-2.167-1.24-2.77c-0.827-0.602-2.097-0.902-3.808-0.902c-0.279,0-0.559,0.002-0.841,0.006
				c-0.283,0.005-0.65,0.019-1.1,0.043c0,0.344-0.004,0.85-0.011,1.517c-0.009,0.668-0.013,1.157-0.013,1.469
				c0,0.507,0.004,1.045,0.013,1.614C122.146,76.24,122.159,77.016,122.175,77.998z M122.15,69.929
				c0.189,0.018,0.391,0.026,0.608,0.031c0.217,0.004,0.542,0.006,0.977,0.006c0.467,0,0.899-0.008,1.296-0.024
				c0.397-0.017,0.779-0.045,1.148-0.086c0.598-0.426,1.049-0.907,1.351-1.443c0.303-0.536,0.455-1.128,0.455-1.774
				c0-1.039-0.332-1.86-0.994-2.463c-0.664-0.601-1.573-0.902-2.727-0.902c-0.254,0-0.547,0.016-0.879,0.05
				c-0.332,0.032-0.706,0.081-1.124,0.146c-0.025,1.098-0.046,2.37-0.066,3.819C122.173,68.737,122.159,69.618,122.15,69.929z"/>
			<path fill="#FFFFFF" d="M141.076,61.664c1.245,0,2.356,0.177,3.336,0.534c0.978,0.355,1.863,0.907,2.658,1.652
				c0.949,0.9,1.677,1.943,2.18,3.131c0.505,1.188,0.755,2.448,0.755,3.783c0,1.359-0.266,2.645-0.798,3.856
				c-0.532,1.211-1.29,2.256-2.272,3.132c-0.786,0.705-1.701,1.254-2.745,1.65C143.146,79.802,142.1,80,141.052,80
				c-1.311,0-2.516-0.241-3.617-0.725c-1.102-0.482-2.073-1.199-2.917-2.149c-0.77-0.867-1.356-1.842-1.762-2.922
				c-0.406-1.081-0.609-2.221-0.609-3.416c0-1.293,0.245-2.515,0.731-3.665c0.487-1.15,1.193-2.159,2.119-3.027
				c0.834-0.786,1.776-1.388,2.825-1.806C138.87,61.872,139.954,61.664,141.076,61.664z M147.291,71.194
				c0-2.383-0.614-4.338-1.843-5.864c-1.228-1.527-2.774-2.291-4.643-2.291c-1.793,0-3.232,0.655-4.316,1.965
				c-1.086,1.311-1.627,3.063-1.627,5.257c0,2.44,0.615,4.442,1.848,6.006s2.773,2.346,4.625,2.346c1.784,0,3.224-0.673,4.317-2.02
				C146.745,75.246,147.291,73.446,147.291,71.194z"/>
			<path fill="#FFFFFF" d="M185.479,61.664c1.245,0,2.356,0.177,3.335,0.534c0.979,0.355,1.864,0.907,2.659,1.652
				c0.95,0.9,1.677,1.943,2.18,3.131s0.756,2.448,0.756,3.783c0,1.359-0.267,2.645-0.8,3.856c-0.531,1.211-1.289,2.256-2.271,3.132
				c-0.786,0.705-1.7,1.254-2.745,1.65c-1.044,0.398-2.091,0.597-3.138,0.597c-1.311,0-2.517-0.241-3.617-0.725
				c-1.102-0.482-2.073-1.199-2.917-2.149c-0.77-0.867-1.357-1.842-1.762-2.922c-0.406-1.081-0.608-2.221-0.608-3.416
				c0-1.293,0.244-2.515,0.73-3.665c0.487-1.15,1.193-2.159,2.12-3.027c0.834-0.786,1.774-1.388,2.824-1.806
				C183.272,61.872,184.358,61.664,185.479,61.664z M191.694,71.194c0-2.383-0.614-4.338-1.842-5.864
				c-1.229-1.527-2.776-2.291-4.643-2.291c-1.794,0-3.232,0.655-4.317,1.965c-1.086,1.311-1.628,3.063-1.628,5.257
				c0,2.44,0.617,4.442,1.849,6.006s2.773,2.346,4.624,2.346c1.785,0,3.224-0.673,4.316-2.02
				C191.147,75.246,191.694,73.446,191.694,71.194z"/>
			<path fill="#FFFFFF" d="M204.295,75.296l3.547-8.057l0.147-0.332c1.17-2.645,1.755-4.208,1.755-4.69
				c0-0.017-0.005-0.042-0.012-0.074c-0.009-0.032-0.012-0.058-0.012-0.074c0.481,0.025,0.917,0.043,1.307,0.056
				c0.388,0.013,0.733,0.019,1.036,0.019c0.287,0,0.618-0.006,0.994-0.019c0.377-0.013,0.79-0.03,1.241-0.056v0.849h-0.147
				c-0.713,0-1.202,0.122-1.469,0.367c-0.265,0.246-0.398,0.684-0.398,1.315c0,0.245,0.016,0.794,0.05,1.646
				c0.031,0.852,0.073,1.772,0.122,2.764l0.208,3.451l0.013,0.33c0.181,3.063,0.32,4.794,0.418,5.196
				c0.049,0.238,0.201,0.422,0.455,0.553c0.253,0.131,0.585,0.196,0.994,0.196h0.308v0.859c-0.646-0.031-1.249-0.057-1.805-0.073
				s-1.017-0.024-1.382-0.024c-0.432,0-0.918,0.008-1.458,0.024c-0.539,0.017-1.115,0.042-1.729,0.073v-0.884
				c0.073,0,0.167,0.004,0.281,0.012c0.115,0.009,0.197,0.013,0.246,0.013c0.623,0,1.055-0.11,1.296-0.331
				c0.241-0.222,0.361-0.623,0.361-1.204c0-0.271-0.004-0.536-0.012-0.799c-0.007-0.262-0.02-0.531-0.037-0.811l-0.478-10.562
				L205.1,76.61c-0.009,0.017-0.024,0.054-0.05,0.11c-0.392,0.811-0.684,1.675-0.871,2.592h-0.811
				c-0.115-0.507-0.402-1.286-0.86-2.333l-0.049-0.11l-4.95-11.214c-0.049,0.876-0.118,2.079-0.209,3.61
				c-0.229,3.799-0.344,6.178-0.344,7.136v0.123c0,1.041,0.117,1.669,0.351,1.886s0.71,0.325,1.431,0.325h0.259v0.859
				c-0.533-0.031-1.043-0.057-1.529-0.073c-0.488-0.017-0.961-0.024-1.42-0.024c-0.327,0-0.734,0.008-1.222,0.024
				s-1.009,0.042-1.566,0.073v-0.859h0.345c0.467,0,0.814-0.057,1.044-0.172c0.229-0.115,0.409-0.315,0.541-0.602
				c0.154-0.337,0.314-1.695,0.479-4.078c0.04-0.654,0.078-1.174,0.11-1.56l0.222-2.973v-0.036c0.221-2.939,0.331-4.61,0.331-5.011
				c0-0.517-0.125-0.877-0.375-1.082c-0.25-0.204-0.722-0.306-1.418-0.306h-0.196v-0.849c0.064,0,0.171,0.005,0.318,0.013
				c0.949,0.057,1.613,0.086,1.99,0.086c0.286,0,0.83-0.024,1.634-0.073c0.254-0.018,0.445-0.025,0.577-0.025v0.074
				c0,0.729,1.387,4.168,4.159,10.317L204.295,75.296z"/>
		</g>
		<path fill="#FFFFFF" d="M176.552,64.243c-0.046-0.549-0.068-1.081-0.068-1.597c0-0.09,0.005-0.223,0.013-0.399
			s0.012-0.305,0.012-0.387c-0.286,0.163-0.788,0.276-1.504,0.338c-0.717,0.062-2.318,0.092-4.809,0.092c0,0-10.59,0-11.27,0h-2.997
			c-1.876,0-3.188-0.032-3.937-0.098c-0.75-0.067-1.247-0.177-1.493-0.332c0,0.662-0.04,1.339-0.122,2.025
			c-0.083,0.688-0.201,1.389-0.356,2.101l0.798,0.172c0.205-1.039,0.519-1.721,0.94-2.045c0.421-0.323,1.233-0.485,2.438-0.485h2.48
			v3.919c0,3.356-0.014,5.829-0.043,7.418c-0.028,1.589-0.08,2.51-0.153,2.764c-0.099,0.385-0.27,0.649-0.516,0.792
			c-0.245,0.143-0.659,0.215-1.24,0.215h-0.431v0.859c0.713-0.031,1.373-0.057,1.983-0.073c0.611-0.017,1.125-0.024,1.543-0.024
			c0.475,0,1.013,0.008,1.614,0.024s1.242,0.042,1.922,0.073v-0.859h-0.43c-0.508,0-0.885-0.057-1.13-0.172
			c-0.246-0.115-0.422-0.32-0.527-0.614c-0.091-0.254-0.154-0.896-0.192-1.928c-0.036-1.032-0.054-3.001-0.054-5.908
			c0-0.77,0.008-2.272,0.023-4.507c0.009-0.852,0.018-1.511,0.025-1.979h8.875v3.919c0,3.356-0.015,5.829-0.043,7.418
			s-0.078,2.51-0.154,2.764c-0.098,0.385-0.269,0.649-0.514,0.792c-0.246,0.143-0.659,0.215-1.242,0.215h-0.429v0.859
			c0.713-0.031,1.373-0.057,1.982-0.073c0.61-0.017,1.125-0.024,1.542-0.024c0.475,0,1.014,0.008,1.615,0.024
			s1.242,0.042,1.923,0.073v-0.859h-0.431c-0.508,0-0.885-0.057-1.13-0.172s-0.422-0.32-0.528-0.614
			c-0.09-0.254-0.153-0.896-0.19-1.928c-0.037-1.032-0.055-3.001-0.055-5.908c0-0.77,0.007-2.272,0.024-4.507
			c0.008-0.852,0.017-1.511,0.024-1.979h2.32c1.303,0.042,2.156,0.23,2.562,0.566c0.405,0.335,0.656,0.966,0.756,1.891l0.773-0.147
			C176.664,65.356,176.597,64.791,176.552,64.243z"/>
		<g>
			<path fill="#FFFFFF" d="M95.202,61.664c0.688,0.523,1.136,0.938,1.344,1.241c0.209,0.303,0.314,0.634,0.314,0.994
				c0,0.598-0.309,1.326-0.927,2.187c-0.619,0.858-1.447,1.69-2.487,2.492l-0.663-0.811c0.54-0.417,0.975-0.869,1.302-1.357
				c0.328-0.486,0.564-1.029,0.712-1.627c-0.442-0.277-0.753-0.519-0.933-0.725c-0.18-0.204-0.27-0.418-0.27-0.639
				c0-0.163,0.053-0.32,0.16-0.473c0.106-0.151,0.356-0.387,0.749-0.706L95.202,61.664z"/>
		</g>
	</g>
	<g>
		<g>
			<g>
				<path fill="#FFFFFF" d="M123.479,18.032c0.293,0.302,0.44,0.848,0.44,1.637c0,0.397,0,0.78-0.001,1.152h2.495
					c0.016-0.942,0.032-1.814,0.05-2.596c0.468-0.074,0.887-0.129,1.259-0.165c0.17-0.017,0.578-0.029,1-0.038v-1.378
					c-0.41,0.009-0.811,0.021-1.117,0.034c-0.936,0.042-1.723,0.062-2.366,0.062c-0.578,0-1.148-0.009-1.712-0.027
					c-0.564-0.019-1.139-0.05-1.726-0.097v0.963h0.11C122.663,17.579,123.186,17.729,123.479,18.032z"/>
				<path fill="#FFFFFF" d="M136.905,27.618c-0.798-0.789-2.003-1.338-3.617-1.65c1.239-0.678,2.126-1.382,2.662-2.111
					s0.805-1.593,0.805-2.592c0-1.421-0.549-2.551-1.644-3.39c-0.706-0.541-1.579-0.905-2.614-1.097v1.891
					c0.163,0.105,0.319,0.218,0.462,0.348c0.742,0.674,1.114,1.593,1.114,2.757c0,0.725-0.171,1.387-0.509,1.987
					c-0.34,0.601-0.844,1.14-1.513,1.616c-0.413,0.046-0.842,0.079-1.287,0.097c-0.444,0.018-2.128,0.027-2.651,0.027
					c-0.485,0-0.85-0.001-1.094-0.006c-0.242-0.005-0.469-0.016-0.681-0.034c0.008-0.271,0.019-0.935,0.034-1.977h-2.47
					c-0.004,0.334-0.007,0.67-0.011,1.014l-0.056,3.754c-0.009,0.486-0.018,1.16-0.027,2.022c-0.019,3.429-0.638,5.143-1.857,5.143
					c-0.119,0-0.208-0.002-0.268-0.006c-0.06-0.005-0.122-0.011-0.186-0.021v0.921c0.669-0.036,1.272-0.064,1.808-0.083
					c0.537-0.019,0.957-0.027,1.259-0.027c0.724,0,1.64,0.022,2.75,0.069c1.11,0.045,3.066,0.069,3.471,0.069
					c2.218,0,3.992-0.514,5.321-1.541c1.33-1.026,1.994-2.379,1.994-4.057C138.102,29.447,137.702,28.406,136.905,27.618z
					 M134.128,33.861c-0.825,0.734-1.99,1.101-3.493,1.101c-0.486,0-2.187-0.039-2.7-0.117c-0.514-0.078-1.036-0.195-1.568-0.351
					c-0.018-1.1-0.032-1.968-0.042-2.606c-0.009-0.637-0.014-1.24-0.014-1.809c0-0.348,0.005-0.896,0.014-1.643
					c0.01-0.747,0.014-1.313,0.014-1.698c0.505-0.027,0.915-0.043,1.232-0.048c0.315-0.005,1.83-0.007,2.143-0.007
					c1.915,0,3.337,0.337,4.262,1.011c0.927,0.673,1.39,1.707,1.39,3.1C135.365,32.105,134.952,33.128,134.128,33.861z"/>
			</g>
			<g>
				<path fill="#FFFFFF" d="M129.328,22.925v1.943h1.496l1.06-0.093c0.002-0.232,0.003-0.498,0.003-0.688V20.43
					c0-0.495-0.005-1.126-0.015-1.896c-0.009-0.77-0.014-1.292-0.014-1.567c0-1.456,0.128-2.406,0.385-2.851
					c0.257-0.444,0.738-0.667,1.444-0.667c0.037,0,0.097,0.005,0.18,0.013c0.081,0.01,0.146,0.014,0.192,0.014v-0.963
					c-0.651,0.037-1.271,0.064-1.857,0.083c-0.586,0.019-1.123,0.027-1.608,0.027c-0.569,0-1.149-0.009-1.74-0.027
					s-1.193-0.046-1.809-0.083v0.963h0.371c0.752,0,1.259,0.211,1.521,0.632c0.261,0.42,0.392,1.542,0.392,3.363v3.83
					c-0.936,0.019-1.854,0.033-2.758,0.042c-0.903,0.009-1.963,0.013-3.184,0.013c-1.192,0-2.12-0.004-2.785-0.013
					c-0.665-0.009-1.295-0.023-1.891-0.042v-3.377v-0.673c0-1.72,0.13-2.779,0.392-3.177s0.768-0.598,1.52-0.598h0.371v-0.963
					c-0.614,0.037-1.215,0.064-1.802,0.083s-1.16,0.027-1.719,0.027c-0.486,0-1.027-0.009-1.623-0.027
					c-0.596-0.019-1.219-0.046-1.87-0.083v0.963c0.046,0,0.11-0.004,0.192-0.014c0.083-0.008,0.138-0.013,0.166-0.013
					c0.724,0,1.217,0.234,1.478,0.701c0.262,0.467,0.393,1.493,0.393,3.078c0,0.257-0.005,0.74-0.015,1.45
					c-0.008,0.71-0.013,1.294-0.013,1.752v3.656c0,0.494,0.005,1.128,0.013,1.903c0.009,0.773,0.015,1.302,0.015,1.586
					c0,1.503-0.129,2.483-0.385,2.941c-0.257,0.458-0.743,0.688-1.458,0.688c-0.12,0-0.214-0.002-0.283-0.007
					c-0.069-0.004-0.13-0.006-0.186-0.006v0.948c0.734-0.036,1.407-0.063,2.022-0.083c0.614-0.018,1.132-0.027,1.554-0.027
					c0.495,0,1.052,0.009,1.67,0.027c0.619,0.02,1.282,0.047,1.988,0.083v-0.962c-0.056,0-0.138,0.004-0.248,0.014
					c-0.11,0.009-0.188,0.014-0.234,0.014c-0.761,0-1.275-0.211-1.541-0.632c-0.266-0.422-0.398-1.513-0.398-3.273v-1.101v-3.272
					c0.513-0.009,0.999-0.016,1.458-0.021c0.458-0.005,0.885-0.007,1.279-0.007c0.009,0,0.064,0,0.165,0
					c0.751-0.018,1.54-0.027,2.366-0.027c1.09,0,2.814,0.019,5.17,0.055H129.328z"/>
				<path fill="#FFFFFF" d="M133.983,31.196c-0.069,0.005-0.168,0.007-0.296,0.007c-0.706,0-1.188-0.229-1.444-0.688
					c-0.257-0.458-0.385-1.438-0.385-2.941c0-0.053,0-0.117,0-0.187l-0.855-0.082h-1.675v0.294c0,1.577-0.131,2.571-0.392,2.984
					c-0.262,0.413-0.769,0.619-1.521,0.619c-0.045,0-0.123-0.005-0.233-0.014c-0.11-0.01-0.191-0.014-0.247-0.014v0.962
					c0.705-0.036,1.368-0.063,1.987-0.083c0.619-0.018,1.176-0.027,1.671-0.027c0.421,0,0.941,0.009,1.561,0.027
					c0.619,0.02,1.29,0.047,2.015,0.083V31.19C134.113,31.19,134.052,31.192,133.983,31.196z"/>
			</g>
		</g>
		<path fill="#FFFFFF" d="M126,2.009c-12.38,0-22.417,10.037-22.417,22.417c0,12.38,10.037,22.417,22.417,22.417
			c12.38,0,22.417-10.036,22.417-22.417C148.417,12.045,138.38,2.009,126,2.009z M126,43.972c-10.796,0-19.548-8.751-19.548-19.547
			c0-10.795,8.752-19.547,19.548-19.547c10.795,0,19.548,8.752,19.548,19.547C145.548,35.221,136.795,43.972,126,43.972z"/>
	</g>
	<g>
		<path fill="#FFFFFF" d="M65.219,92.493h-2.048v0.942h1.815v0.568h-1.815v0.974h2.074v0.568h-2.71v-3.622h2.685V92.493z"/>
		<path fill="#FFFFFF" d="M69.879,91.924h0.637v3.043h1.904v0.579h-2.541V91.924z"/>
		<path fill="#FFFFFF" d="M79.645,92.493h-2.048v0.942h1.816v0.568h-1.816v0.974h2.075v0.568H76.96v-3.622h2.685V92.493z"/>
		<path fill="#FFFFFF" d="M86.876,91.924h0.688l-1.505,3.647H85.5l-1.505-3.647h0.704l1.092,2.784L86.876,91.924z"/>
		<path fill="#FFFFFF" d="M95.013,95.546H94.34l-0.367-0.874H92.26l-0.373,0.874h-0.652l1.594-3.646h0.589L95.013,95.546z
			 M93.114,92.659l-0.621,1.449h1.247L93.114,92.659z"/>
		<path fill="#FFFFFF" d="M100.578,95.546h-0.641v-3.032h-1.149v-0.59h2.938v0.59h-1.148V95.546z"/>
		<path fill="#FFFFFF" d="M108.962,92.493h-2.048v0.942h1.815v0.568h-1.815v0.974h2.074v0.568h-2.71v-3.622h2.685V92.493z"/>
		<path fill="#FFFFFF" d="M114.972,95.546h-1.351v-3.622h1.351c1.139,0,1.925,0.782,1.925,1.807S116.111,95.546,114.972,95.546z
			 M114.972,92.504h-0.714v2.463h0.714c0.761,0,1.258-0.512,1.258-1.227C116.23,93.026,115.733,92.504,114.972,92.504z"/>
		<path fill="#FFFFFF" d="M129.792,92.851c0,0.445-0.248,0.674-0.518,0.812c0.424,0.146,0.719,0.389,0.719,0.886
			c0,0.651-0.532,0.998-1.341,0.998h-1.676v-3.622h1.625C129.331,91.924,129.792,92.281,129.792,92.851z M129.155,92.953
			c0-0.294-0.229-0.464-0.637-0.464h-0.916v0.961h0.87C128.882,93.45,129.155,93.291,129.155,92.953z M129.355,94.48
			c0-0.311-0.241-0.492-0.745-0.492h-1.008v0.993h1.057C129.093,94.981,129.355,94.812,129.355,94.48z"/>
		<path fill="#FFFFFF" d="M138.058,95.546h-0.674l-0.366-0.874h-1.714l-0.372,0.874h-0.65l1.593-3.646h0.589L138.058,95.546z
			 M136.157,92.659l-0.62,1.449h1.247L136.157,92.659z"/>
		<path fill="#FFFFFF" d="M144.878,95.546l-0.889-1.263h-0.797v1.263h-0.636v-3.622h1.614c0.832,0,1.344,0.44,1.344,1.149
			c0,0.601-0.356,0.962-0.862,1.102l0.978,1.371H144.878z M144.118,92.504h-0.926v1.216h0.931c0.455,0,0.745-0.238,0.745-0.61
			C144.868,92.712,144.59,92.504,144.118,92.504z"/>
		<path fill="#FFFFFF" d="M152.988,92.851c0,0.445-0.248,0.674-0.516,0.812c0.424,0.146,0.72,0.389,0.72,0.886
			c0,0.651-0.535,0.998-1.341,0.998h-1.676v-3.622h1.624C152.529,91.924,152.988,92.281,152.988,92.851z M152.354,92.953
			c0-0.294-0.229-0.464-0.637-0.464h-0.916v0.961h0.869C152.079,93.45,152.354,93.291,152.354,92.953z M152.556,94.48
			c0-0.311-0.243-0.492-0.746-0.492h-1.009v0.993h1.057C152.291,94.981,152.556,94.812,152.556,94.48z"/>
		<path fill="#FFFFFF" d="M160.474,92.493h-2.048v0.942h1.815v0.568h-1.815v0.974h2.074v0.568h-2.711v-3.622h2.685V92.493z"/>
		<path fill="#FFFFFF" d="M167.456,95.546l-0.889-1.263h-0.798v1.263h-0.635v-3.622h1.612c0.834,0,1.347,0.44,1.347,1.149
			c0,0.601-0.357,0.962-0.865,1.102l0.978,1.371H167.456z M166.695,92.504h-0.926v1.216h0.932c0.456,0,0.745-0.238,0.745-0.61
			C167.446,92.712,167.167,92.504,166.695,92.504z"/>
		<path fill="#FFFFFF" d="M173.427,91.924v3.622h-0.638v-3.622H173.427z"/>
		<path fill="#FFFFFF" d="M180.801,91.924h0.627v3.622h-0.533l-1.997-2.576v2.576h-0.626v-3.622h0.59l1.939,2.505V91.924z"/>
		<path fill="#FFFFFF" d="M187.955,95.608c-1.134,0-1.879-0.808-1.879-1.868c0-1.019,0.776-1.877,1.867-1.877
			c0.633,0,1.02,0.176,1.392,0.491l-0.402,0.48c-0.279-0.238-0.554-0.388-1.016-0.388c-0.666,0-1.172,0.579-1.172,1.283
			c0,0.75,0.49,1.299,1.229,1.299c0.341,0,0.652-0.109,0.875-0.274v-0.679h-0.926v-0.552h1.541v1.52
			C189.108,95.35,188.596,95.608,187.955,95.608z"/>
	</g>
	<g>
		<g>
			<path fill="#FFFFFF" d="M100.117,56.213c0.009,0.002,0.02,0.004,0.032,0.004s0.028,0.001,0.048,0.001
				c0.215,0,0.323-0.268,0.324-0.802c0-0.153,0.001-0.276,0.003-0.367v-1.257c0-0.229-0.023-0.37-0.069-0.421
				c-0.046-0.052-0.133-0.077-0.263-0.077h-0.032v-0.217c0.123,0.01,0.239,0.019,0.346,0.023c0.107,0.004,0.209,0.007,0.306,0.007
				c0.142,0,0.297-0.004,0.466-0.012c0.169-0.009,0.267-0.012,0.293-0.012c0.001,0,0.004-0.001,0.009-0.003
				c0.022-0.001,0.043-0.003,0.063-0.004c0.364,0,0.65,0.072,0.855,0.216c0.206,0.145,0.309,0.341,0.309,0.59
				c0,0.163-0.055,0.31-0.162,0.436c-0.107,0.128-0.272,0.239-0.496,0.338c0.285,0.046,0.503,0.137,0.652,0.273
				c0.15,0.138,0.224,0.314,0.224,0.53c0,0.287-0.126,0.521-0.377,0.699s-0.585,0.269-1.001,0.269c-0.063,0-0.204-0.005-0.419-0.015
				c-0.216-0.009-0.399-0.014-0.553-0.014c-0.042,0-0.11,0.003-0.203,0.008s-0.212,0.012-0.355,0.021V56.213z M101.155,56.049
				c0.093,0.025,0.178,0.043,0.252,0.056c0.075,0.011,0.146,0.018,0.212,0.018c0.23,0,0.412-0.058,0.543-0.173
				c0.132-0.116,0.198-0.272,0.198-0.473c0-0.214-0.073-0.377-0.219-0.487c-0.146-0.109-0.364-0.164-0.653-0.164
				c-0.073,0-0.135,0-0.187,0.001c-0.051,0.003-0.102,0.004-0.151,0.008v0.411c0,0.248,0,0.425,0.002,0.53
				C101.152,55.88,101.154,55.972,101.155,56.049z M101.155,54.552c0.028,0.002,0.058,0.002,0.09,0.003
				c0.033,0.001,0.083,0.002,0.147,0.002c0.089,0,0.172-0.002,0.248-0.005c0.077-0.003,0.147-0.008,0.213-0.015
				c0.106-0.074,0.186-0.159,0.239-0.254c0.054-0.094,0.081-0.195,0.081-0.305c0-0.184-0.059-0.327-0.175-0.433
				c-0.117-0.104-0.278-0.156-0.484-0.156c-0.055,0-0.111,0.003-0.171,0.009c-0.059,0.005-0.119,0.014-0.179,0.023
				c-0.002,0.138-0.003,0.335-0.005,0.593C101.159,54.272,101.156,54.451,101.155,54.552z"/>
			<path fill="#FFFFFF" d="M107.688,53.067h0.57c0.224,0.657,0.438,1.262,0.642,1.812c0.204,0.551,0.346,0.917,0.427,1.1
				c0.034,0.082,0.078,0.141,0.129,0.176c0.052,0.035,0.122,0.053,0.209,0.053h0.051v0.211c-0.198-0.01-0.35-0.016-0.456-0.02
				c-0.106-0.003-0.195-0.004-0.266-0.004c-0.068,0-0.158,0.001-0.267,0.004c-0.108,0.004-0.267,0.01-0.473,0.02v-0.211h0.042
				c0.123,0,0.207-0.014,0.25-0.042c0.043-0.028,0.065-0.078,0.065-0.149c0-0.022-0.003-0.048-0.008-0.077s-0.017-0.07-0.034-0.124
				l-0.191-0.565c-0.088-0.001-0.206-0.004-0.35-0.006c-0.145-0.003-0.235-0.004-0.271-0.004c-0.067,0-0.202,0.003-0.404,0.008
				c-0.073,0.001-0.13,0.002-0.171,0.002l-0.009,0.023c-0.153,0.373-0.229,0.607-0.229,0.706c0,0.081,0.023,0.14,0.069,0.175
				c0.046,0.036,0.122,0.054,0.228,0.054h0.042v0.211c-0.178-0.01-0.315-0.016-0.414-0.02c-0.098-0.003-0.18-0.004-0.243-0.004
				c-0.053,0-0.123,0.001-0.209,0.004c-0.086,0.004-0.212,0.01-0.377,0.02v-0.211c0.112,0,0.202-0.02,0.269-0.059
				s0.124-0.104,0.17-0.195c0.067-0.122,0.218-0.462,0.453-1.02C107.167,54.377,107.419,53.755,107.688,53.067z M107.818,53.629
				l-0.51,1.291c0.06,0.002,0.122,0.004,0.188,0.004c0.066,0.001,0.155,0.001,0.266,0.001c0.127,0,0.227,0,0.299-0.001
				c0.072,0,0.139-0.002,0.201-0.004L107.818,53.629z"/>
			<path fill="#FFFFFF" d="M112.83,56.213c0.012,0.002,0.024,0.004,0.036,0.004c0.012,0,0.03,0.001,0.055,0.001
				c0.127,0,0.214-0.042,0.258-0.126c0.044-0.085,0.067-0.308,0.067-0.669V55.25v-0.161v-0.087l0.009-0.523
				c0.001-0.11,0.002-0.22,0.003-0.329c0.001-0.108,0.001-0.24,0.001-0.393c0-0.196-0.024-0.323-0.072-0.381
				c-0.047-0.058-0.137-0.087-0.267-0.087h-0.049v-0.205c0.167,0.007,0.304,0.014,0.413,0.017c0.109,0.005,0.204,0.007,0.285,0.007
				c0.115,0,0.258-0.004,0.43-0.012c0.171-0.009,0.287-0.012,0.346-0.012c0.386,0,0.691,0.08,0.914,0.24s0.334,0.378,0.334,0.654
				c0,0.184-0.056,0.347-0.167,0.486c-0.111,0.141-0.278,0.26-0.5,0.36l0.458,0.645c0.218,0.34,0.377,0.554,0.478,0.641
				c0.1,0.088,0.208,0.13,0.321,0.13c0.006,0,0.015-0.001,0.026-0.001c0.012-0.002,0.021-0.003,0.027-0.003v0.196
				c-0.095,0.008-0.178,0.014-0.248,0.018c-0.07,0.003-0.131,0.006-0.184,0.006c-0.19,0-0.339-0.021-0.447-0.063
				c-0.107-0.042-0.204-0.114-0.29-0.217c-0.041-0.048-0.141-0.204-0.299-0.467c-0.159-0.263-0.299-0.486-0.418-0.674
				c-0.097,0.003-0.183,0.005-0.257,0.007s-0.147,0.002-0.217,0.002v0.622c0,0.238,0.023,0.389,0.07,0.449
				c0.047,0.062,0.138,0.093,0.275,0.093h0.066v0.211c-0.127-0.009-0.256-0.014-0.383-0.019c-0.128-0.004-0.259-0.005-0.393-0.005
				c-0.043,0-0.108,0.001-0.193,0.004c-0.084,0.001-0.248,0.009-0.489,0.02V56.213z M113.877,54.738
				c0.083,0.004,0.152,0.009,0.21,0.011s0.106,0.003,0.145,0.003c0.048,0,0.1-0.001,0.154-0.003c0.054-0.002,0.111-0.007,0.17-0.011
				c0.135-0.087,0.235-0.187,0.298-0.298c0.062-0.111,0.094-0.242,0.094-0.392c0-0.195-0.066-0.353-0.198-0.473
				c-0.131-0.121-0.306-0.182-0.524-0.182c-0.066,0-0.128,0.002-0.184,0.007c-0.055,0.005-0.109,0.012-0.162,0.021
				c-0.002,0.171-0.003,0.348-0.003,0.534C113.877,54.141,113.877,54.402,113.877,54.738z"/>
			<path fill="#FFFFFF" d="M119.314,56.213c0.01,0.002,0.02,0.004,0.031,0.004c0.012,0,0.028,0.001,0.048,0.001
				c0.215,0,0.323-0.268,0.325-0.802c0-0.153,0.001-0.276,0.002-0.367v-1.257c0-0.229-0.023-0.37-0.069-0.421
				c-0.046-0.052-0.133-0.077-0.263-0.077h-0.033v-0.217c0.123,0.01,0.239,0.019,0.346,0.023c0.107,0.004,0.209,0.007,0.307,0.007
				c0.141,0,0.296-0.004,0.466-0.012c0.168-0.009,0.266-0.012,0.293-0.012c0,0,0.004-0.001,0.009-0.003
				c0.022-0.001,0.042-0.003,0.063-0.004c0.365,0,0.65,0.072,0.856,0.216c0.205,0.145,0.308,0.341,0.308,0.59
				c0,0.163-0.054,0.31-0.161,0.436c-0.108,0.128-0.273,0.239-0.496,0.338c0.285,0.046,0.502,0.137,0.652,0.273
				c0.15,0.138,0.225,0.314,0.225,0.53c0,0.287-0.126,0.521-0.377,0.699s-0.585,0.269-1.001,0.269c-0.064,0-0.203-0.005-0.419-0.015
				c-0.216-0.009-0.4-0.014-0.553-0.014c-0.042,0-0.109,0.003-0.202,0.008c-0.094,0.005-0.212,0.012-0.356,0.021V56.213z
				 M120.352,56.049c0.094,0.025,0.178,0.043,0.253,0.056c0.074,0.011,0.145,0.018,0.212,0.018c0.23,0,0.412-0.058,0.543-0.173
				c0.131-0.116,0.198-0.272,0.198-0.473c0-0.214-0.073-0.377-0.22-0.487c-0.146-0.109-0.364-0.164-0.651-0.164
				c-0.074,0-0.137,0-0.188,0.001c-0.052,0.003-0.102,0.004-0.152,0.008v0.411c0,0.248,0.001,0.425,0.001,0.53
				C120.349,55.88,120.351,55.972,120.352,56.049z M120.352,54.552c0.028,0.002,0.058,0.002,0.091,0.003
				c0.033,0.001,0.082,0.002,0.147,0.002c0.088,0,0.171-0.002,0.248-0.005c0.076-0.003,0.147-0.008,0.213-0.015
				c0.105-0.074,0.186-0.159,0.239-0.254c0.054-0.094,0.081-0.195,0.081-0.305c0-0.184-0.059-0.327-0.175-0.433
				c-0.117-0.104-0.279-0.156-0.484-0.156c-0.055,0-0.112,0.003-0.171,0.009c-0.059,0.005-0.119,0.014-0.18,0.023
				c-0.002,0.138-0.003,0.335-0.005,0.593S120.353,54.451,120.352,54.552z"/>
			<path fill="#FFFFFF" d="M125.479,53.079c0.264,0.011,0.509,0.02,0.734,0.024c0.224,0.006,0.421,0.009,0.591,0.009
				c0.285,0,0.526-0.003,0.724-0.009c0.196-0.005,0.38-0.014,0.55-0.024c0.003,0.136,0.01,0.27,0.019,0.4
				c0.01,0.132,0.022,0.265,0.04,0.398l-0.211,0.028c-0.021-0.195-0.086-0.326-0.192-0.395c-0.107-0.068-0.321-0.104-0.642-0.104
				c-0.058,0-0.134,0.001-0.229,0.004s-0.214,0.006-0.353,0.01c-0.003,0.207-0.006,0.404-0.009,0.592
				c-0.002,0.188-0.004,0.37-0.007,0.543h0.068c0.091,0,0.203,0,0.338,0.001c0.135,0.002,0.225,0.003,0.27,0.003
				c0.216,0,0.356-0.021,0.423-0.063c0.067-0.041,0.103-0.121,0.107-0.24l0.173,0.016c0,0.079-0.002,0.177-0.006,0.295
				c-0.006,0.117-0.008,0.196-0.008,0.239c0,0.042,0.001,0.095,0.004,0.161c0.002,0.065,0.006,0.144,0.01,0.235l-0.196,0.014v-0.027
				c0-0.134-0.038-0.225-0.115-0.271c-0.077-0.047-0.26-0.07-0.546-0.07h-0.348h-0.178v0.269c0,0.139,0.001,0.28,0.003,0.427
				c0,0.146,0.003,0.318,0.006,0.52c0.07,0.01,0.158,0.017,0.262,0.022c0.105,0.006,0.22,0.008,0.345,0.008
				c0.373,0,0.621-0.038,0.744-0.116c0.124-0.078,0.225-0.229,0.301-0.449l0.216,0.067c-0.052,0.15-0.096,0.292-0.133,0.428
				c-0.036,0.136-0.067,0.268-0.092,0.396c-0.368-0.013-0.661-0.021-0.879-0.026s-0.412-0.007-0.582-0.007
				c-0.192,0-0.498,0.007-0.918,0.021c-0.145,0.005-0.254,0.008-0.329,0.012v-0.206c0.009,0.002,0.019,0.004,0.031,0.004
				c0.011,0,0.029,0.001,0.052,0.001c0.131,0,0.22-0.041,0.267-0.121s0.07-0.29,0.07-0.632v-0.233v-0.215l0.005-0.521
				c0-0.024,0-0.06,0.002-0.106c0.004-0.191,0.006-0.322,0.006-0.393c0-0.069-0.001-0.144-0.002-0.219
				c-0.001-0.076-0.002-0.119-0.002-0.126c0-0.137-0.024-0.231-0.073-0.283c-0.049-0.054-0.135-0.08-0.256-0.08h-0.054V53.079z"/>
			<path fill="#FFFFFF" d="M131.542,56.213c0.013,0.002,0.025,0.004,0.036,0.004c0.012,0,0.03,0.001,0.056,0.001
				c0.128,0,0.214-0.042,0.259-0.126c0.044-0.085,0.065-0.308,0.065-0.669V55.25v-0.161v-0.087l0.01-0.523
				c0.001-0.11,0.003-0.22,0.003-0.329c0.002-0.108,0.002-0.24,0.002-0.393c0-0.196-0.024-0.323-0.071-0.381
				c-0.048-0.058-0.137-0.087-0.268-0.087h-0.05v-0.205c0.167,0.007,0.305,0.014,0.415,0.017c0.108,0.005,0.203,0.007,0.284,0.007
				c0.115,0,0.259-0.004,0.43-0.012c0.171-0.009,0.287-0.012,0.347-0.012c0.386,0,0.691,0.08,0.913,0.24
				c0.224,0.16,0.334,0.378,0.334,0.654c0,0.184-0.055,0.347-0.167,0.486c-0.111,0.141-0.278,0.26-0.501,0.36l0.458,0.645
				c0.218,0.34,0.377,0.554,0.478,0.641c0.101,0.088,0.208,0.13,0.322,0.13c0.006,0,0.015-0.001,0.026-0.001
				c0.012-0.002,0.021-0.003,0.027-0.003v0.196c-0.096,0.008-0.178,0.014-0.249,0.018c-0.069,0.003-0.131,0.006-0.184,0.006
				c-0.19,0-0.339-0.021-0.446-0.063s-0.203-0.114-0.29-0.217c-0.04-0.048-0.141-0.204-0.3-0.467
				c-0.158-0.263-0.298-0.486-0.418-0.674c-0.097,0.003-0.182,0.005-0.257,0.007c-0.074,0.002-0.147,0.002-0.218,0.002v0.622
				c0,0.238,0.024,0.389,0.07,0.449c0.047,0.062,0.139,0.093,0.276,0.093h0.065v0.211c-0.128-0.009-0.256-0.014-0.384-0.019
				c-0.128-0.004-0.259-0.005-0.393-0.005c-0.042,0-0.107,0.001-0.192,0.004c-0.085,0.001-0.248,0.009-0.49,0.02V56.213z
				 M132.589,54.738c0.084,0.004,0.153,0.009,0.211,0.011s0.105,0.003,0.145,0.003c0.049,0,0.1-0.001,0.154-0.003
				s0.111-0.007,0.171-0.011c0.135-0.087,0.234-0.187,0.297-0.298c0.064-0.111,0.096-0.242,0.096-0.392
				c0-0.195-0.066-0.353-0.197-0.473c-0.132-0.121-0.307-0.182-0.524-0.182c-0.067,0-0.129,0.002-0.184,0.007
				c-0.056,0.005-0.109,0.012-0.163,0.021c-0.001,0.171-0.002,0.348-0.003,0.534C132.59,54.141,132.589,54.402,132.589,54.738z"/>
			<path fill="#FFFFFF" d="M144.166,52.997c0.248,0,0.469,0.034,0.663,0.103c0.195,0.067,0.375,0.172,0.538,0.313
				c0.189,0.165,0.336,0.361,0.439,0.59c0.104,0.229,0.154,0.471,0.154,0.726c0,0.509-0.173,0.932-0.517,1.27
				c-0.345,0.339-0.775,0.507-1.293,0.507c-0.27,0-0.513-0.044-0.731-0.132c-0.218-0.089-0.411-0.219-0.579-0.394
				c-0.156-0.164-0.274-0.351-0.356-0.561c-0.082-0.209-0.122-0.432-0.122-0.667c0-0.26,0.05-0.501,0.152-0.726
				c0.102-0.223,0.25-0.418,0.445-0.585c0.161-0.141,0.349-0.249,0.561-0.327S143.948,52.997,144.166,52.997z M145.238,54.811
				c0-0.44-0.102-0.795-0.306-1.063c-0.204-0.268-0.472-0.401-0.805-0.401c-0.317,0-0.571,0.119-0.76,0.356
				c-0.189,0.239-0.284,0.562-0.284,0.968c0,0.445,0.103,0.802,0.31,1.07c0.206,0.271,0.475,0.405,0.805,0.405
				c0.32,0,0.572-0.12,0.76-0.358C145.145,55.549,145.238,55.224,145.238,54.811z"/>
			<path fill="#FFFFFF" d="M149.197,56.215c0.011,0.002,0.022,0.003,0.036,0.004c0.013,0.001,0.032,0.001,0.06,0.001
				c0.127,0,0.214-0.039,0.261-0.118c0.045-0.078,0.068-0.261,0.068-0.549v-0.237c0-0.074,0-0.129-0.002-0.168
				c0-0.038-0.001-0.075-0.003-0.108v-0.601c0-0.09,0.001-0.218,0.003-0.387c0-0.168,0.002-0.293,0.002-0.377
				c0-0.152-0.024-0.255-0.073-0.307c-0.05-0.053-0.143-0.079-0.277-0.079h-0.042v-0.205c0.258,0.009,0.497,0.017,0.72,0.021
				c0.223,0.005,0.431,0.008,0.625,0.008c0.193,0,0.396-0.003,0.603-0.008c0.209-0.004,0.424-0.012,0.646-0.021
				c0,0.121,0.005,0.248,0.014,0.382c0.01,0.134,0.024,0.276,0.045,0.432l-0.208,0.027c-0.019-0.202-0.082-0.339-0.188-0.41
				s-0.326-0.106-0.656-0.106c-0.068,0-0.149,0.001-0.244,0.004s-0.202,0.006-0.32,0.01c-0.003,0.239-0.006,0.455-0.008,0.649
				c-0.003,0.193-0.006,0.365-0.008,0.513c0.084,0.001,0.19,0.003,0.319,0.005c0.129,0.001,0.218,0.002,0.265,0.002
				c0.236,0,0.393-0.021,0.468-0.065c0.074-0.043,0.115-0.125,0.121-0.245l0.196,0.015c-0.014,0.122-0.025,0.228-0.031,0.312
				c-0.006,0.086-0.009,0.161-0.009,0.227c0,0.039,0.004,0.125,0.012,0.257c0.003,0.067,0.006,0.121,0.008,0.159l-0.195,0.009
				v-0.042c0-0.132-0.037-0.222-0.11-0.269c-0.074-0.047-0.238-0.069-0.492-0.069c-0.039,0-0.11,0.001-0.214,0.002
				c-0.104,0.002-0.189,0.003-0.256,0.003h-0.081v0.599v0.197c0,0.238,0.024,0.388,0.075,0.447c0.05,0.059,0.151,0.088,0.303,0.088
				c0.009,0,0.023,0,0.043-0.002c0.02-0.001,0.034-0.002,0.048-0.002v0.208c-0.032-0.002-0.08-0.005-0.14-0.007
				c-0.306-0.015-0.521-0.021-0.646-0.021c-0.058,0-0.19,0.005-0.396,0.014c-0.143,0.006-0.255,0.011-0.339,0.015V56.215z"/>
		</g>
	</g>
	<rect x="37.148" y="85.891" fill="#FFFFFF" width="177.703" height="0.177"/>
</g>
</svg>
