<?xml version="1.0" encoding="utf-8"?>
<!-- Generator: Adobe Illustrator 16.0.4, SVG Export Plug-In . SVG Version: 6.00 Build 0)  -->
<!DOCTYPE svg PUBLIC "-//W3C//DTD SVG 1.1//EN" "http://www.w3.org/Graphics/SVG/1.1/DTD/svg11.dtd">
<svg version="1.1" id="Layer_2" xmlns="http://www.w3.org/2000/svg" xmlns:xlink="http://www.w3.org/1999/xlink" x="0px" y="0px"
	 width="252px" height="70.5px" viewBox="0 0 252 70.5" enable-background="new 0 0 252 70.5" xml:space="preserve">
<g>
	<g>
		<g>
			<path fill="#FFFFFF" d="M3.491,29.137c0.803,0.045,1.57,0.079,2.305,0.102c0.735,0.023,1.401,0.034,2.001,0.034
				c0.688,0,1.395-0.011,2.118-0.034c0.723-0.023,1.463-0.057,2.22-0.102v1.187h-0.457c-0.926,0-1.551,0.246-1.873,0.737
				c-0.322,0.49-0.482,1.795-0.482,3.916v0.829v4.162c0.733,0.022,1.51,0.04,2.33,0.051c0.818,0.012,1.963,0.017,3.432,0.017
				c1.502,0,2.811-0.005,3.923-0.017c1.113-0.011,2.246-0.028,3.399-0.051v-4.721c0-2.244-0.161-3.625-0.483-4.145
				s-0.947-0.779-1.873-0.779h-0.457v-1.187c0.757,0.045,1.5,0.079,2.229,0.102s1.443,0.034,2.144,0.034
				c0.6,0,1.26-0.011,1.983-0.034c0.723-0.023,1.485-0.057,2.288-0.102v1.187c-0.058,0-0.136-0.005-0.238-0.017
				c-0.102-0.011-0.174-0.017-0.22-0.017c-0.871,0-1.463,0.273-1.779,0.821s-0.475,1.718-0.475,3.514
				c0,0.338,0.005,0.982,0.017,1.93c0.012,0.949,0.018,1.728,0.018,2.338v4.505c0,0.609-0.006,1.391-0.018,2.345
				s-0.017,1.607-0.017,1.956c0,1.852,0.158,3.062,0.475,3.625c0.316,0.564,0.908,0.846,1.779,0.846
				c0.158,0,0.279-0.003,0.364-0.008c0.085-0.007,0.161-0.009,0.229-0.009v1.17c-0.894-0.045-1.722-0.079-2.483-0.102
				c-0.763-0.023-1.404-0.034-1.924-0.034c-0.61,0-1.296,0.011-2.059,0.034c-0.764,0.022-1.58,0.057-2.449,0.102v-1.186
				c0.067,0,0.169,0.005,0.305,0.016c0.136,0.012,0.231,0.017,0.288,0.017c0.926,0,1.551-0.253,1.873-0.762
				c0.322-0.508,0.483-1.734,0.483-3.678v-2.052v-3.711h-0.221c-2.904-0.045-5.028-0.067-6.373-0.067
				c-1.017,0-1.988,0.011-2.915,0.033c-0.125,0-0.192,0-0.203,0c-0.486,0-1.012,0.003-1.576,0.009
				c-0.565,0.006-1.164,0.014-1.796,0.025V46v1.356c0,2.169,0.163,3.514,0.491,4.033c0.327,0.52,0.96,0.779,1.897,0.779
				c0.057,0,0.152-0.005,0.288-0.017c0.136-0.011,0.237-0.016,0.306-0.016v1.186c-0.87-0.045-1.687-0.079-2.449-0.102
				c-0.762-0.023-1.449-0.034-2.059-0.034c-0.521,0-1.159,0.011-1.916,0.034c-0.757,0.022-1.587,0.057-2.491,0.102v-1.17
				c0.068,0,0.144,0.002,0.229,0.009c0.085,0.005,0.2,0.008,0.348,0.008c0.881,0,1.48-0.281,1.797-0.846
				c0.315-0.563,0.474-1.773,0.474-3.625c0-0.349-0.005-1.002-0.017-1.956c-0.011-0.954-0.017-1.735-0.017-2.345v-4.505
				c0-0.565,0.006-1.284,0.017-2.159c0.012-0.875,0.017-1.471,0.017-1.787c0-1.953-0.16-3.218-0.482-3.793
				c-0.321-0.576-0.93-0.864-1.822-0.864c-0.033,0-0.102,0.005-0.203,0.017s-0.181,0.017-0.237,0.017V29.137z"/>
			<path fill="#FFFFFF" d="M30.053,29.137c1.978,0.068,3.747,0.12,5.306,0.153c1.559,0.034,2.903,0.051,4.033,0.051
				c1.255,0,2.522-0.017,3.805-0.051c1.283-0.033,2.586-0.084,3.906-0.153c0.012,0.848,0.046,1.715,0.103,2.602
				c0.057,0.888,0.124,1.777,0.204,2.67l-1.136,0.101c-0.091-1.355-0.509-2.273-1.255-2.754c-0.746-0.48-2.355-0.72-4.83-0.72
				c-0.633,0-1.791,0.017-3.475,0.051c-0.339,0.011-0.588,0.016-0.746,0.016c-0.022,1.357-0.057,3.017-0.101,4.983
				c-0.046,1.967-0.074,3.243-0.086,3.831h0.526c0.666,0,1.499,0.009,2.5,0.025c1,0.017,1.669,0.025,2.008,0.025
				c1.639,0,2.72-0.152,3.246-0.457c0.525-0.306,0.811-0.871,0.855-1.695l1.067,0.102c-0.078,0.7-0.139,1.351-0.178,1.949
				s-0.06,1.152-0.06,1.66c0,0.295,0.028,0.927,0.086,1.898c0.022,0.351,0.039,0.616,0.05,0.798l-1.102,0.033V44.12
				c0-0.96-0.279-1.61-0.839-1.949c-0.56-0.34-1.867-0.508-3.923-0.508h-3.018h-1.221c0,0.553-0.006,1.319-0.017,2.297
				c-0.012,0.977-0.017,1.68-0.017,2.109c0,0.746,0.005,1.522,0.017,2.33c0.011,0.809,0.034,1.754,0.068,2.84
				c0.564,0.067,1.206,0.117,1.924,0.151c0.717,0.034,1.505,0.052,2.363,0.052c2.836,0,4.704-0.274,5.603-0.822
				c0.898-0.549,1.612-1.603,2.143-3.161l1.222,0.407c-0.34,0.938-0.639,1.858-0.899,2.762c-0.26,0.904-0.485,1.803-0.677,2.695
				c-1.774-0.068-3.424-0.119-4.949-0.153c-1.525-0.032-2.904-0.05-4.136-0.05c-1.683,0-4.396,0.062-8.135,0.186l-0.61,0.018V52.22
				c0.078,0.012,0.155,0.021,0.229,0.025c0.073,0.006,0.184,0.009,0.331,0.009c1.502,0,2.265-2.111,2.287-6.339
				c0.012-1.062,0.022-1.892,0.034-2.491l0.067-4.627c0.011-0.994,0.021-1.96,0.025-2.897c0.007-0.938,0.009-1.955,0.009-3.051
				c0-0.972-0.181-1.645-0.542-2.018c-0.362-0.373-1.006-0.559-1.933-0.559h-0.136V29.137z"/>
			<path fill="#FFFFFF" d="M49.382,29.086c1.21,0.068,2.128,0.116,2.755,0.144c0.627,0.029,1.133,0.043,1.517,0.043
				c0.734,0,1.454-0.014,2.161-0.043c0.706-0.027,1.409-0.069,2.11-0.126v1.187h-0.525c-0.894,0-1.497,0.307-1.814,0.922
				c-0.316,0.616-0.475,2.03-0.475,4.242v3.372l0.052,12.413c0.633,0.032,1.234,0.057,1.804,0.075
				c0.572,0.017,1.11,0.026,1.62,0.026c3.027,0,4.979-0.28,5.855-0.839c0.875-0.56,1.573-1.643,2.093-3.246l1.22,0.373
				c-0.35,0.971-0.66,1.926-0.932,2.863c-0.271,0.938-0.509,1.881-0.712,2.831c-1.876-0.058-3.602-0.099-5.178-0.127
				c-1.576-0.029-3.054-0.043-4.432-0.043c-0.973,0-2.057,0.014-3.254,0.043c-1.198,0.028-2.61,0.069-4.237,0.127V52.22
				c0.079,0.012,0.155,0.021,0.229,0.025c0.073,0.006,0.184,0.009,0.33,0.009c1.525-0.012,2.294-2.185,2.306-6.52
				c0-0.981,0.006-1.75,0.017-2.304l0.034-4.605c0-0.498,0.005-1.135,0.017-1.914c0.012-0.78,0.018-1.321,0.018-1.626
				c0-2.078-0.167-3.429-0.5-4.056c-0.334-0.626-0.981-0.94-1.94-0.94h-0.137V29.086z"/>
			<path fill="#FFFFFF" d="M68.161,29.086c1.209,0.068,2.127,0.116,2.754,0.144c0.627,0.029,1.133,0.043,1.517,0.043
				c0.734,0,1.455-0.014,2.162-0.043c0.705-0.027,1.407-0.069,2.108-0.126v1.187h-0.524c-0.893,0-1.497,0.307-1.813,0.922
				c-0.317,0.616-0.476,2.03-0.476,4.242v3.372l0.052,12.413c0.633,0.032,1.234,0.057,1.806,0.075
				c0.57,0.017,1.109,0.026,1.618,0.026c3.027,0,4.979-0.28,5.855-0.839c0.875-0.56,1.573-1.643,2.093-3.246l1.221,0.373
				c-0.35,0.971-0.661,1.926-0.933,2.863c-0.271,0.938-0.509,1.881-0.712,2.831c-1.875-0.058-3.601-0.099-5.178-0.127
				c-1.575-0.029-3.054-0.043-4.432-0.043c-0.972,0-2.057,0.014-3.254,0.043c-1.197,0.028-2.61,0.069-4.237,0.127V52.22
				c0.079,0.012,0.155,0.021,0.229,0.025c0.074,0.006,0.184,0.009,0.331,0.009c1.525-0.012,2.293-2.185,2.305-6.52
				c0-0.981,0.006-1.75,0.017-2.304l0.034-4.605c0-0.498,0.006-1.135,0.017-1.914c0.012-0.78,0.018-1.321,0.018-1.626
				c0-2.078-0.167-3.429-0.5-4.056s-0.98-0.94-1.94-0.94h-0.136V29.086z"/>
			<path fill="#FFFFFF" d="M102.012,29.866c0,0.836,0.048,1.661,0.144,2.474c0.096,0.814,0.245,1.617,0.448,2.407l-1.321,0.255
				c-0.192-1.402-0.731-2.441-1.618-3.119c-0.887-0.678-2.139-1.016-3.754-1.016c-1.492,0-2.704,0.361-3.636,1.083
				c-0.933,0.724-1.398,1.656-1.398,2.797c0,1.876,1.988,3.481,5.966,4.813c0.53,0.17,0.938,0.306,1.221,0.407
				c1.818,0.633,3.156,1.443,4.017,2.433c0.858,0.988,1.287,2.212,1.287,3.669c0,2.248-0.852,4.069-2.56,5.464
				c-1.705,1.397-3.965,2.094-6.778,2.094c-1.073,0-2.121-0.087-3.144-0.262s-2.06-0.449-3.11-0.822
				c0.012-0.112,0.02-0.245,0.025-0.398c0.006-0.152,0.008-0.375,0.008-0.669c0-0.803-0.045-1.592-0.135-2.373
				c-0.091-0.779-0.227-1.56-0.406-2.34l1.524-0.354c0.192,1.852,0.773,3.207,1.746,4.066c0.972,0.859,2.413,1.289,4.321,1.289
				c1.673,0,3.034-0.422,4.085-1.263c1.051-0.843,1.576-1.925,1.576-3.246c0-1.876-1.639-3.333-4.915-4.373
				c-0.464-0.147-0.825-0.267-1.085-0.355c-2.271-0.735-3.898-1.633-4.881-2.695c-0.983-1.062-1.475-2.417-1.475-4.067
				c0-1.943,0.769-3.565,2.306-4.865c1.535-1.299,3.462-1.949,5.778-1.949c0.848,0,1.706,0.068,2.576,0.204
				C99.694,29.29,100.757,29.527,102.012,29.866z"/>
			<path fill="#FFFFFF" d="M114.723,52.22c0.078,0.012,0.155,0.021,0.228,0.025c0.074,0.006,0.185,0.009,0.331,0.009
				c1.502,0,2.265-2.111,2.288-6.339c0.011-1.062,0.022-1.892,0.033-2.491l0.068-4.627c0.011-0.994,0.02-1.96,0.025-2.897
				c0.006-0.938,0.009-1.955,0.009-3.051c0-0.972-0.181-1.645-0.543-2.018c-0.361-0.373-1.005-0.559-1.932-0.559h-0.136v-1.187
				c0.724,0.057,1.433,0.096,2.127,0.119c0.695,0.022,1.398,0.034,2.11,0.034c0.791,0,1.763-0.025,2.915-0.076
				c1.152-0.05,1.904-0.076,2.255-0.076c2.326,0,4.166,0.517,5.517,1.551c1.35,1.034,2.025,2.427,2.025,4.178
				c0,1.232-0.33,2.297-0.992,3.195c-0.66,0.898-1.754,1.765-3.279,2.602c1.988,0.383,3.475,1.062,4.457,2.033
				c0.983,0.973,1.475,2.254,1.475,3.848c0,2.066-0.819,3.734-2.457,5c-1.639,1.266-3.826,1.896-6.56,1.896
				c-0.497,0-1.43-0.027-2.796-0.084c-1.368-0.057-2.498-0.084-3.39-0.084c-0.373,0-0.891,0.012-1.551,0.033
				c-0.661,0.023-1.405,0.057-2.229,0.102V52.22z M120.721,51.12c0.655,0.191,1.3,0.336,1.933,0.431
				c0.634,0.098,1.249,0.146,1.849,0.146c1.852,0,3.288-0.452,4.305-1.357c1.016-0.903,1.524-2.162,1.524-3.778
				c0-1.718-0.57-2.991-1.711-3.821c-1.142-0.831-2.894-1.246-5.254-1.246c-0.386,0-0.771,0.003-1.161,0.008
				c-0.39,0.007-0.896,0.025-1.517,0.06c0,0.475-0.007,1.173-0.017,2.093c-0.013,0.922-0.018,1.598-0.018,2.025
				c0,0.701,0.005,1.443,0.018,2.229C120.682,48.693,120.699,49.764,120.721,51.12z M120.688,39.985
				c0.26,0.022,0.539,0.035,0.839,0.042c0.299,0.006,0.747,0.008,1.347,0.008c0.645,0,1.24-0.011,1.788-0.034
				c0.549-0.022,1.077-0.062,1.585-0.119c0.824-0.587,1.446-1.25,1.865-1.99c0.416-0.739,0.626-1.557,0.626-2.449
				c0-1.435-0.457-2.567-1.373-3.398c-0.916-0.83-2.168-1.245-3.762-1.245c-0.351,0-0.754,0.022-1.212,0.068
				c-0.458,0.044-0.976,0.112-1.552,0.203c-0.034,1.515-0.064,3.271-0.092,5.271C120.719,38.339,120.699,39.554,120.688,39.985z"/>
			<path fill="#FFFFFF" d="M146.805,28.578c1.719,0,3.252,0.245,4.603,0.737c1.35,0.492,2.572,1.252,3.669,2.28
				c1.311,1.243,2.313,2.683,3.008,4.321c0.696,1.639,1.042,3.378,1.042,5.22c0,1.876-0.366,3.649-1.101,5.322
				c-0.735,1.672-1.779,3.112-3.136,4.322c-1.085,0.972-2.349,1.73-3.789,2.278s-2.884,0.822-4.329,0.822
				c-1.809,0-3.472-0.333-4.991-0.999c-1.521-0.666-2.862-1.655-4.025-2.967c-1.062-1.197-1.873-2.542-2.432-4.034
				c-0.561-1.491-0.84-3.061-0.84-4.711c0-1.784,0.336-3.472,1.009-5.059c0.673-1.588,1.646-2.98,2.924-4.178
				c1.151-1.084,2.451-1.916,3.897-2.492C143.76,28.866,145.257,28.578,146.805,28.578z M155.381,41.729
				c0-3.288-0.847-5.984-2.542-8.092c-1.695-2.107-3.83-3.161-6.407-3.161c-2.474,0-4.461,0.905-5.957,2.711
				c-1.498,1.808-2.245,4.227-2.245,7.254c0,3.367,0.85,6.131,2.551,8.288s3.826,3.236,6.381,3.236c2.463,0,4.449-0.929,5.957-2.788
				C154.626,47.32,155.381,44.837,155.381,41.729z"/>
			<path fill="#FFFFFF" d="M208.08,28.578c1.717,0,3.251,0.245,4.6,0.737c1.352,0.492,2.574,1.252,3.67,2.28
				c1.312,1.243,2.313,2.683,3.008,4.321c0.695,1.639,1.043,3.378,1.043,5.22c0,1.876-0.366,3.649-1.103,5.322
				c-0.733,1.672-1.778,3.112-3.134,4.322c-1.086,0.972-2.349,1.73-3.789,2.278s-2.884,0.822-4.33,0.822
				c-1.808,0-3.473-0.333-4.992-0.999c-1.519-0.666-2.859-1.655-4.024-2.967c-1.062-1.197-1.872-2.542-2.431-4.034
				c-0.56-1.491-0.839-3.061-0.839-4.711c0-1.784,0.335-3.472,1.008-5.059c0.671-1.588,1.646-2.98,2.924-4.178
				c1.151-1.084,2.45-1.916,3.898-2.492C205.033,28.866,206.53,28.578,208.08,28.578z M216.655,41.729
				c0-3.288-0.848-5.984-2.543-8.092c-1.694-2.107-3.83-3.161-6.405-3.161c-2.476,0-4.461,0.905-5.958,2.711
				c-1.497,1.808-2.246,4.227-2.246,7.254c0,3.367,0.852,6.131,2.552,8.288c1.698,2.157,3.827,3.236,6.38,3.236
				c2.463,0,4.449-0.929,5.957-2.788C215.9,47.32,216.655,44.837,216.655,41.729z"/>
			<path fill="#FFFFFF" d="M234.044,47.391l4.894-11.119l0.203-0.457c1.614-3.649,2.422-5.808,2.422-6.475
				c0-0.022-0.005-0.057-0.016-0.102c-0.013-0.045-0.018-0.078-0.018-0.102c0.666,0.034,1.267,0.059,1.805,0.077
				c0.535,0.017,1.012,0.025,1.43,0.025c0.396,0,0.853-0.009,1.372-0.025c0.52-0.018,1.09-0.043,1.713-0.077v1.17h-0.203
				c-0.985,0-1.66,0.169-2.026,0.508c-0.367,0.339-0.551,0.943-0.551,1.814c0,0.339,0.022,1.096,0.068,2.271
				c0.043,1.175,0.101,2.446,0.168,3.813l0.288,4.763l0.019,0.456c0.248,4.227,0.44,6.615,0.576,7.171
				c0.066,0.327,0.275,0.582,0.626,0.762c0.351,0.181,0.808,0.272,1.373,0.272h0.424v1.186c-0.893-0.045-1.723-0.079-2.49-0.102
				c-0.766-0.023-1.401-0.034-1.907-0.034c-0.595,0-1.267,0.011-2.011,0.034c-0.743,0.022-1.54,0.057-2.388,0.102v-1.221
				c0.102,0,0.231,0.005,0.39,0.017c0.159,0.012,0.271,0.019,0.339,0.019c0.859,0,1.455-0.153,1.788-0.458
				c0.333-0.307,0.499-0.858,0.499-1.662c0-0.373-0.006-0.739-0.016-1.102c-0.012-0.36-0.028-0.734-0.052-1.119l-0.66-14.574
				l-6.948,15.981c-0.012,0.022-0.034,0.074-0.069,0.152c-0.54,1.119-0.942,2.312-1.201,3.576h-1.119
				c-0.159-0.7-0.555-1.773-1.188-3.22l-0.066-0.151l-6.83-15.475c-0.068,1.209-0.164,2.871-0.289,4.983
				c-0.317,5.242-0.474,8.525-0.474,9.847v0.171c0,1.435,0.16,2.301,0.483,2.601c0.321,0.3,0.979,0.45,1.974,0.45h0.356v1.186
				c-0.734-0.045-1.438-0.079-2.11-0.102c-0.674-0.023-1.325-0.034-1.958-0.034c-0.452,0-1.015,0.011-1.686,0.034
				c-0.674,0.022-1.395,0.057-2.161,0.102v-1.186h0.475c0.644,0,1.123-0.079,1.44-0.238c0.315-0.158,0.564-0.436,0.746-0.83
				c0.214-0.464,0.436-2.339,0.661-5.628c0.055-0.903,0.107-1.619,0.152-2.152l0.305-4.101v-0.051
				c0.305-4.057,0.457-6.362,0.457-6.916c0-0.711-0.172-1.208-0.518-1.492c-0.344-0.282-0.996-0.423-1.957-0.423h-0.27v-1.17
				c0.089,0,0.236,0.007,0.439,0.018c1.31,0.079,2.225,0.119,2.746,0.119c0.395,0,1.146-0.034,2.254-0.103
				c0.35-0.022,0.615-0.034,0.797-0.034v0.102c0,1.006,1.914,5.751,5.739,14.237L234.044,47.391z"/>
		</g>
		<path fill="#FFFFFF" d="M195.76,32.137c-0.064-0.756-0.095-1.491-0.095-2.203c0-0.125,0.007-0.308,0.018-0.55
			c0.011-0.244,0.017-0.421,0.017-0.535c-0.396,0.227-1.089,0.381-2.076,0.466c-0.989,0.085-3.2,0.127-6.635,0.127
			c0,0-14.614,0-15.552,0h-4.136c-2.589,0-4.398-0.045-5.433-0.136c-1.034-0.091-1.721-0.243-2.06-0.458
			c0,0.915-0.057,1.848-0.169,2.796c-0.114,0.95-0.277,1.916-0.492,2.898l1.101,0.237c0.283-1.435,0.716-2.375,1.298-2.821
			c0.582-0.447,1.702-0.67,3.364-0.67h3.423v5.408c0,4.633-0.02,8.044-0.06,10.236c-0.039,2.192-0.109,3.463-0.212,3.813
			c-0.136,0.531-0.373,0.896-0.712,1.093c-0.338,0.197-0.909,0.298-1.712,0.298h-0.592v1.186c0.982-0.045,1.894-0.079,2.737-0.102
			c0.841-0.023,1.55-0.034,2.127-0.034c0.655,0,1.397,0.011,2.228,0.034c0.831,0.022,1.716,0.057,2.652,0.102v-1.186h-0.593
			c-0.701,0-1.221-0.079-1.559-0.238c-0.34-0.158-0.583-0.441-0.729-0.848c-0.125-0.35-0.213-1.237-0.265-2.66
			c-0.05-1.424-0.075-4.142-0.075-8.153c0-1.062,0.012-3.136,0.034-6.22c0.011-1.175,0.022-2.084,0.034-2.729h12.247v5.408
			c0,4.633-0.019,8.044-0.059,10.236s-0.109,3.463-0.213,3.813c-0.136,0.531-0.373,0.896-0.711,1.093
			c-0.339,0.197-0.909,0.298-1.712,0.298h-0.594v1.186c0.984-0.045,1.896-0.079,2.737-0.102c0.842-0.023,1.552-0.034,2.128-0.034
			c0.653,0,1.398,0.011,2.228,0.034c0.831,0.022,1.715,0.057,2.653,0.102v-1.186h-0.594c-0.701,0-1.22-0.079-1.56-0.238
			c-0.339-0.158-0.582-0.441-0.728-0.848c-0.124-0.35-0.213-1.237-0.264-2.66c-0.051-1.424-0.075-4.142-0.075-8.153
			c0-1.062,0.01-3.136,0.033-6.22c0.011-1.175,0.023-2.084,0.033-2.729h3.203c1.797,0.058,2.976,0.317,3.535,0.78
			c0.559,0.463,0.905,1.333,1.042,2.61l1.068-0.204C195.914,33.674,195.821,32.894,195.76,32.137z"/>
		<g>
			<path fill="#FFFFFF" d="M83.5,28.578c0.949,0.724,1.568,1.294,1.855,1.712c0.289,0.418,0.433,0.876,0.433,1.373
				c0,0.825-0.426,1.831-1.279,3.017c-0.854,1.188-1.997,2.333-3.432,3.44l-0.916-1.119c0.746-0.576,1.345-1.2,1.797-1.872
				c0.451-0.673,0.779-1.421,0.982-2.246c-0.61-0.385-1.04-0.718-1.287-1.001c-0.249-0.282-0.373-0.576-0.373-0.881
				c0-0.227,0.073-0.443,0.22-0.653c0.147-0.208,0.492-0.533,1.034-0.974L83.5,28.578z"/>
		</g>
	</g>
	<g>
		<g>
			<path fill="#FFFFFF" d="M90.284,21.056c0.013,0.003,0.027,0.004,0.044,0.005c0.015,0.001,0.038,0.001,0.064,0.001
				c0.297,0,0.446-0.369,0.448-1.106c0-0.212,0.002-0.382,0.004-0.506v-1.735c0-0.316-0.031-0.51-0.096-0.581
				c-0.062-0.071-0.183-0.106-0.362-0.106h-0.045v-0.299c0.17,0.015,0.329,0.026,0.478,0.032c0.148,0.006,0.289,0.01,0.423,0.01
				c0.194,0,0.409-0.006,0.643-0.016c0.233-0.011,0.368-0.016,0.405-0.016c0.001,0,0.006-0.001,0.012-0.004
				c0.031-0.001,0.06-0.003,0.088-0.005c0.503,0,0.896,0.099,1.181,0.298c0.283,0.199,0.426,0.471,0.426,0.814
				c0,0.226-0.075,0.427-0.223,0.602c-0.148,0.175-0.376,0.33-0.685,0.466c0.394,0.062,0.694,0.188,0.9,0.377
				c0.207,0.189,0.31,0.433,0.31,0.732c0,0.396-0.174,0.717-0.521,0.964c-0.347,0.248-0.808,0.371-1.382,0.371
				c-0.088,0-0.28-0.007-0.579-0.019c-0.297-0.013-0.552-0.02-0.763-0.02c-0.058,0-0.15,0.004-0.279,0.01
				c-0.13,0.006-0.294,0.016-0.49,0.029V21.056z M91.716,20.831c0.128,0.034,0.245,0.06,0.348,0.076
				c0.104,0.017,0.201,0.024,0.294,0.024c0.317,0,0.568-0.079,0.749-0.239c0.183-0.159,0.273-0.376,0.273-0.651
				c0-0.296-0.102-0.521-0.304-0.672s-0.501-0.227-0.9-0.227c-0.101,0-0.186,0.001-0.258,0.003c-0.071,0.002-0.141,0.005-0.209,0.01
				v0.567c0,0.342,0.001,0.585,0.002,0.73S91.714,20.723,91.716,20.831z M91.716,18.763c0.039,0.003,0.08,0.004,0.125,0.005
				s0.114,0.001,0.203,0.001c0.123,0,0.237-0.002,0.343-0.007c0.104-0.004,0.203-0.011,0.293-0.02
				c0.146-0.103,0.257-0.22,0.331-0.35c0.073-0.13,0.111-0.271,0.111-0.42c0-0.254-0.081-0.453-0.242-0.597
				c-0.161-0.144-0.384-0.216-0.667-0.216c-0.076,0-0.154,0.004-0.236,0.011c-0.082,0.008-0.164,0.019-0.248,0.034
				c-0.002,0.189-0.004,0.462-0.007,0.817C91.72,18.379,91.718,18.626,91.716,18.763z"/>
			<path fill="#FFFFFF" d="M100.731,16.715h0.786c0.311,0.908,0.605,1.741,0.886,2.501c0.28,0.76,0.478,1.266,0.589,1.518
				c0.047,0.114,0.107,0.194,0.179,0.243c0.072,0.048,0.168,0.073,0.289,0.073h0.07v0.29c-0.272-0.013-0.482-0.021-0.628-0.026
				c-0.147-0.003-0.27-0.006-0.368-0.006c-0.094,0-0.217,0.002-0.368,0.006c-0.15,0.005-0.368,0.014-0.653,0.026v-0.29h0.058
				c0.17,0,0.285-0.02,0.344-0.059c0.061-0.039,0.091-0.107,0.091-0.207c0-0.03-0.003-0.065-0.011-0.106s-0.022-0.098-0.047-0.171
				l-0.265-0.78c-0.122-0.002-0.284-0.004-0.483-0.008c-0.2-0.003-0.325-0.004-0.374-0.004c-0.093,0-0.278,0.003-0.558,0.01
				c-0.102,0.002-0.18,0.003-0.237,0.003l-0.012,0.032c-0.21,0.514-0.314,0.838-0.314,0.974c0,0.111,0.03,0.192,0.094,0.242
				s0.168,0.075,0.315,0.075h0.057v0.29c-0.244-0.013-0.435-0.021-0.57-0.026c-0.136-0.003-0.248-0.006-0.335-0.006
				c-0.074,0-0.169,0.002-0.289,0.006c-0.118,0.005-0.293,0.014-0.521,0.026v-0.29c0.154,0,0.277-0.027,0.371-0.081
				c0.092-0.054,0.171-0.144,0.235-0.271c0.092-0.167,0.301-0.636,0.625-1.406S100.359,17.664,100.731,16.715z M100.909,17.49
				l-0.703,1.784c0.082,0.001,0.168,0.003,0.259,0.004c0.092,0.001,0.214,0.001,0.366,0.001c0.176,0,0.313,0,0.413-0.001
				c0.1-0.001,0.191-0.002,0.277-0.004L100.909,17.49z"/>
			<path fill="#FFFFFF" d="M107.826,21.056c0.017,0.003,0.034,0.004,0.05,0.005s0.042,0.001,0.076,0.001
				c0.176,0,0.295-0.058,0.355-0.175c0.062-0.116,0.093-0.423,0.093-0.922v-0.239v-0.223v-0.119l0.012-0.722
				c0.003-0.153,0.004-0.304,0.005-0.455c0.001-0.15,0.002-0.331,0.002-0.541c0-0.271-0.033-0.447-0.099-0.526
				c-0.065-0.08-0.189-0.12-0.368-0.12h-0.068v-0.283c0.229,0.01,0.42,0.019,0.571,0.023c0.149,0.006,0.282,0.009,0.393,0.009
				c0.159,0,0.357-0.006,0.594-0.016c0.236-0.011,0.396-0.016,0.478-0.016c0.532,0,0.953,0.111,1.261,0.332
				c0.308,0.221,0.462,0.522,0.462,0.903c0,0.253-0.078,0.477-0.231,0.67c-0.153,0.194-0.384,0.36-0.691,0.497l0.632,0.89
				c0.301,0.469,0.521,0.763,0.659,0.884s0.287,0.181,0.443,0.181c0.008,0,0.021-0.001,0.037-0.003
				c0.017-0.002,0.029-0.004,0.038-0.004v0.271c-0.132,0.011-0.246,0.019-0.344,0.023c-0.096,0.006-0.181,0.008-0.253,0.008
				c-0.263,0-0.469-0.029-0.617-0.087s-0.281-0.158-0.399-0.3c-0.055-0.067-0.193-0.281-0.413-0.644
				c-0.219-0.362-0.411-0.672-0.577-0.931c-0.133,0.004-0.251,0.008-0.354,0.01c-0.104,0.003-0.202,0.004-0.301,0.004v0.858
				c0,0.328,0.033,0.535,0.099,0.621c0.064,0.084,0.19,0.127,0.379,0.127h0.091v0.29c-0.176-0.011-0.353-0.019-0.528-0.024
				c-0.177-0.005-0.357-0.008-0.542-0.008c-0.061,0-0.149,0.001-0.267,0.004c-0.116,0.003-0.342,0.013-0.675,0.028V21.056z
				 M109.27,19.021c0.115,0.006,0.211,0.012,0.291,0.015c0.079,0.003,0.146,0.005,0.201,0.005c0.065,0,0.137-0.002,0.213-0.005
				c0.074-0.003,0.152-0.009,0.234-0.015c0.188-0.12,0.323-0.257,0.411-0.411c0.087-0.154,0.13-0.333,0.13-0.54
				c0-0.269-0.09-0.486-0.272-0.654c-0.182-0.166-0.422-0.249-0.724-0.249c-0.092,0-0.177,0.003-0.253,0.01
				c-0.075,0.006-0.151,0.016-0.225,0.028c-0.002,0.235-0.003,0.479-0.004,0.735C109.271,18.197,109.27,18.557,109.27,19.021z"/>
			<path fill="#FFFFFF" d="M116.773,21.056c0.014,0.003,0.027,0.004,0.044,0.005c0.016,0.001,0.038,0.001,0.066,0.001
				c0.296,0,0.446-0.369,0.447-1.106c0-0.212,0.002-0.382,0.004-0.506v-1.735c0-0.316-0.032-0.51-0.095-0.581
				c-0.064-0.071-0.185-0.106-0.363-0.106h-0.045v-0.299c0.169,0.015,0.329,0.026,0.478,0.032c0.148,0.006,0.288,0.01,0.422,0.01
				c0.195,0,0.41-0.006,0.644-0.016c0.232-0.011,0.368-0.016,0.405-0.016c0.002,0,0.006-0.001,0.012-0.004
				c0.03-0.001,0.06-0.003,0.088-0.005c0.503,0,0.896,0.099,1.181,0.298c0.282,0.199,0.425,0.471,0.425,0.814
				c0,0.226-0.073,0.427-0.222,0.602c-0.148,0.175-0.376,0.33-0.685,0.466c0.394,0.062,0.693,0.188,0.9,0.377
				c0.206,0.189,0.31,0.433,0.31,0.732c0,0.396-0.175,0.717-0.521,0.964c-0.348,0.248-0.809,0.371-1.382,0.371
				c-0.089,0-0.282-0.007-0.579-0.019c-0.298-0.013-0.552-0.02-0.763-0.02c-0.058,0-0.152,0.004-0.28,0.01
				c-0.129,0.006-0.293,0.016-0.491,0.029V21.056z M118.206,20.831c0.129,0.034,0.244,0.06,0.349,0.076
				c0.103,0.017,0.2,0.024,0.293,0.024c0.317,0,0.568-0.079,0.749-0.239c0.183-0.159,0.273-0.376,0.273-0.651
				c0-0.296-0.101-0.521-0.304-0.672c-0.202-0.152-0.502-0.227-0.899-0.227c-0.102,0-0.188,0.001-0.258,0.003
				c-0.071,0.002-0.141,0.005-0.211,0.01v0.567c0,0.342,0.001,0.585,0.003,0.73C118.202,20.597,118.204,20.723,118.206,20.831z
				 M118.206,18.763c0.038,0.003,0.08,0.004,0.125,0.005c0.046,0.001,0.113,0.001,0.204,0.001c0.122,0,0.236-0.002,0.341-0.007
				c0.106-0.004,0.203-0.011,0.294-0.02c0.146-0.103,0.256-0.22,0.331-0.35c0.074-0.13,0.11-0.271,0.11-0.42
				c0-0.254-0.08-0.453-0.241-0.597c-0.162-0.144-0.384-0.216-0.668-0.216c-0.075,0-0.153,0.004-0.235,0.011
				c-0.081,0.008-0.165,0.019-0.247,0.034c-0.003,0.189-0.006,0.462-0.007,0.817C118.211,18.379,118.207,18.626,118.206,18.763z"/>
			<path fill="#FFFFFF" d="M125.281,16.732c0.364,0.015,0.702,0.026,1.011,0.033c0.311,0.008,0.583,0.012,0.817,0.012
				c0.394,0,0.727-0.004,0.999-0.012c0.271-0.007,0.524-0.019,0.759-0.033c0.004,0.187,0.013,0.371,0.025,0.553
				c0.014,0.182,0.03,0.365,0.056,0.55l-0.291,0.039c-0.029-0.269-0.119-0.45-0.267-0.544c-0.147-0.095-0.442-0.142-0.886-0.142
				c-0.079,0-0.185,0.001-0.317,0.004c-0.131,0.003-0.294,0.008-0.485,0.014c-0.004,0.284-0.007,0.556-0.011,0.816
				c-0.003,0.26-0.007,0.51-0.011,0.749h0.094c0.124,0,0.279,0.001,0.465,0.002c0.187,0.003,0.312,0.004,0.373,0.004
				c0.297,0,0.491-0.029,0.584-0.087s0.141-0.169,0.149-0.332l0.236,0.022c0,0.108-0.003,0.243-0.008,0.406
				c-0.007,0.162-0.011,0.272-0.011,0.33s0.003,0.132,0.006,0.222s0.008,0.199,0.013,0.326l-0.27,0.019v-0.039
				c0-0.185-0.054-0.31-0.16-0.374c-0.105-0.064-0.357-0.097-0.753-0.097h-0.48h-0.244v0.371c0,0.191,0,0.387,0.003,0.589
				c0.002,0.201,0.005,0.44,0.008,0.717c0.098,0.013,0.219,0.023,0.364,0.03c0.146,0.008,0.304,0.012,0.476,0.012
				c0.514,0,0.855-0.054,1.027-0.161c0.17-0.107,0.309-0.314,0.415-0.619l0.297,0.093c-0.072,0.207-0.133,0.403-0.184,0.591
				c-0.051,0.187-0.093,0.368-0.127,0.545c-0.507-0.017-0.912-0.029-1.213-0.036s-0.568-0.01-0.803-0.01
				c-0.264,0-0.688,0.01-1.269,0.029c-0.2,0.006-0.35,0.011-0.455,0.016v-0.284c0.015,0.003,0.028,0.004,0.045,0.005
				c0.016,0.001,0.04,0.001,0.071,0.001c0.182,0,0.304-0.056,0.369-0.167c0.064-0.11,0.098-0.401,0.098-0.872v-0.323v-0.296
				l0.006-0.719c0-0.033,0-0.081,0.003-0.146c0.006-0.264,0.008-0.444,0.008-0.541c0-0.097-0.001-0.198-0.002-0.304
				c-0.003-0.105-0.004-0.163-0.004-0.174c0-0.187-0.032-0.317-0.101-0.39c-0.067-0.073-0.186-0.11-0.354-0.11h-0.073V16.732z"/>
			<path fill="#FFFFFF" d="M133.648,21.056c0.018,0.003,0.034,0.004,0.05,0.005c0.018,0.001,0.042,0.001,0.075,0.001
				c0.177,0,0.296-0.058,0.357-0.175c0.061-0.116,0.091-0.423,0.091-0.922v-0.239v-0.223v-0.119l0.014-0.722
				c0.002-0.153,0.005-0.304,0.005-0.455c0.001-0.15,0.002-0.331,0.002-0.541c0-0.271-0.033-0.447-0.1-0.526
				c-0.064-0.08-0.187-0.12-0.369-0.12h-0.067v-0.283c0.231,0.01,0.421,0.019,0.572,0.023c0.149,0.006,0.281,0.009,0.394,0.009
				c0.157,0,0.355-0.006,0.592-0.016c0.236-0.011,0.396-0.016,0.478-0.016c0.533,0,0.955,0.111,1.261,0.332
				c0.309,0.221,0.461,0.522,0.461,0.903c0,0.253-0.075,0.477-0.229,0.67c-0.154,0.194-0.385,0.36-0.691,0.497l0.631,0.89
				c0.302,0.469,0.521,0.763,0.66,0.884c0.139,0.121,0.286,0.181,0.443,0.181c0.01,0,0.021-0.001,0.037-0.003
				s0.028-0.004,0.037-0.004v0.271c-0.132,0.011-0.245,0.019-0.342,0.023c-0.097,0.006-0.181,0.008-0.255,0.008
				c-0.262,0-0.469-0.029-0.615-0.087c-0.148-0.058-0.281-0.158-0.4-0.3c-0.057-0.067-0.193-0.281-0.414-0.644
				c-0.219-0.362-0.41-0.672-0.577-0.931c-0.132,0.004-0.251,0.008-0.354,0.01c-0.103,0.003-0.204,0.004-0.301,0.004v0.858
				c0,0.328,0.033,0.535,0.097,0.621c0.066,0.084,0.192,0.127,0.382,0.127h0.09v0.29c-0.177-0.011-0.354-0.019-0.529-0.024
				s-0.356-0.008-0.543-0.008c-0.059,0-0.147,0.001-0.265,0.004c-0.117,0.003-0.342,0.013-0.676,0.028V21.056z M135.093,19.021
				c0.114,0.006,0.211,0.012,0.29,0.015c0.08,0.003,0.146,0.005,0.2,0.005c0.067,0,0.138-0.002,0.213-0.005
				c0.076-0.003,0.154-0.009,0.236-0.015c0.187-0.12,0.324-0.257,0.409-0.411c0.088-0.154,0.133-0.333,0.133-0.54
				c0-0.269-0.092-0.486-0.273-0.654c-0.181-0.166-0.423-0.249-0.723-0.249c-0.094,0-0.178,0.003-0.254,0.01
				c-0.077,0.006-0.15,0.016-0.225,0.028c-0.001,0.235-0.003,0.479-0.004,0.735C135.095,18.197,135.093,18.557,135.093,19.021z"/>
			<path fill="#FFFFFF" d="M151.068,16.619c0.342,0,0.647,0.046,0.915,0.14c0.269,0.093,0.518,0.238,0.742,0.434
				c0.262,0.227,0.464,0.499,0.607,0.814c0.143,0.315,0.212,0.648,0.212,1.001c0,0.701-0.238,1.285-0.712,1.75
				c-0.476,0.467-1.071,0.701-1.784,0.701c-0.373,0-0.708-0.062-1.009-0.182c-0.302-0.122-0.567-0.304-0.8-0.544
				c-0.215-0.226-0.379-0.483-0.492-0.772c-0.113-0.289-0.169-0.596-0.169-0.92c0-0.36,0.07-0.692,0.211-1.001
				c0.14-0.309,0.345-0.578,0.614-0.808c0.223-0.193,0.481-0.344,0.774-0.451C150.47,16.673,150.768,16.619,151.068,16.619z
				 M152.548,19.121c0-0.608-0.141-1.097-0.422-1.467c-0.281-0.37-0.651-0.554-1.11-0.554c-0.437,0-0.788,0.165-1.048,0.493
				c-0.262,0.329-0.393,0.774-0.393,1.335c0,0.613,0.142,1.105,0.428,1.477c0.284,0.373,0.655,0.558,1.11,0.558
				c0.441,0,0.79-0.165,1.048-0.494C152.42,20.14,152.548,19.691,152.548,19.121z"/>
			<path fill="#FFFFFF" d="M158.011,21.06c0.016,0.002,0.031,0.004,0.051,0.005c0.017,0.001,0.045,0.001,0.082,0.001
				c0.174,0,0.296-0.054,0.359-0.163c0.063-0.109,0.095-0.361,0.095-0.757v-0.329c0-0.101-0.001-0.178-0.002-0.23
				c-0.001-0.053-0.003-0.103-0.005-0.15v-0.829c0-0.122,0.001-0.3,0.004-0.532c0.001-0.233,0.003-0.406,0.003-0.52
				c0-0.211-0.034-0.353-0.102-0.424c-0.068-0.072-0.195-0.108-0.382-0.108h-0.058v-0.283c0.354,0.012,0.685,0.022,0.992,0.028
				c0.307,0.007,0.594,0.01,0.861,0.01c0.269,0,0.547-0.003,0.834-0.01c0.286-0.006,0.584-0.016,0.892-0.028
				c0,0.167,0.006,0.343,0.02,0.527c0.013,0.184,0.032,0.382,0.062,0.595l-0.288,0.038c-0.025-0.279-0.112-0.467-0.26-0.566
				c-0.146-0.098-0.449-0.146-0.907-0.146c-0.093,0-0.204,0.001-0.335,0.004c-0.132,0.003-0.28,0.008-0.442,0.014
				c-0.005,0.329-0.009,0.627-0.012,0.896c-0.003,0.267-0.007,0.504-0.011,0.708c0.116,0.002,0.263,0.004,0.442,0.007
				c0.178,0.002,0.3,0.003,0.363,0.003c0.326,0,0.543-0.03,0.646-0.09s0.158-0.173,0.167-0.338l0.27,0.019
				c-0.02,0.17-0.033,0.314-0.041,0.432c-0.008,0.119-0.013,0.222-0.013,0.313c0,0.054,0.005,0.172,0.016,0.354
				c0.005,0.092,0.008,0.166,0.011,0.219l-0.268,0.013v-0.058c0-0.183-0.052-0.307-0.153-0.372c-0.103-0.064-0.329-0.096-0.68-0.096
				c-0.054,0-0.152,0.001-0.295,0.003s-0.261,0.003-0.354,0.003h-0.112v0.827v0.272c0,0.33,0.034,0.535,0.104,0.617
				c0.07,0.081,0.209,0.123,0.418,0.123c0.013,0,0.031,0,0.06-0.003c0.026-0.002,0.047-0.003,0.065-0.003v0.288
				c-0.044-0.002-0.109-0.006-0.193-0.01c-0.422-0.02-0.717-0.029-0.89-0.029c-0.079,0-0.263,0.006-0.549,0.019
				c-0.195,0.009-0.351,0.015-0.467,0.02V21.06z"/>
		</g>
	</g>
</g>
</svg>
